<svg id="Capa_1" enable-background="new 0 0 512 512" height="512" viewBox="0 0 512 512" width="512" xmlns="http://www.w3.org/2000/svg"><g><path d="m288.985 492h-193.588v-359.365h53.282v51.286c0 5.523 4.478 10 10 10s10-4.477 10-10v-51.286h136.559v51.286c0 5.523 4.478 10 10 10s10-4.477 10-10v-51.286h51.617v104.748c0 5.523 4.477 10 10 10 5.522 0 10-4.477 10-10v-114.748c0-5.523-4.478-10-10-10h-61.617v-24.784c-.001-48.442-39.602-87.851-88.28-87.851-11.145 0-21.814 2.066-31.641 5.833-9.827-3.767-20.496-5.833-31.641-5.833-48.678 0-88.279 39.409-88.279 87.851v24.784h-61.618c-5.522 0-10 4.477-10 10v341.939c0 26.15 21.306 47.426 47.494 47.426h261.862c-14.664 0-27.445-8.065-34.15-20zm-52.027-472c37.649 0 68.279 30.438 68.279 67.851v24.784h-43.282v-24.784c0-27.106-12.4-51.384-31.851-67.511 2.255-.225 4.541-.34 6.854-.34zm-31.641 7.735c21.762 11.356 36.638 34.042 36.638 60.116v24.784h-73.276v-24.784c0-26.074 14.876-48.76 36.638-60.116zm-99.92 60.116c0-37.413 30.63-67.851 68.279-67.851 2.313 0 4.599.115 6.854.339-19.451 16.128-31.851 40.405-31.851 67.511v24.784h-43.282zm-30 404.149h-14.124c-15.16 0-27.494-12.303-27.494-27.426v-331.939h41.617v359.365z" fill="#020288"/></g><g><path d="m459.078 512h-145.943c-21.618 0-39.143-17.525-39.143-39.143v-183.436h224.229v183.436c0 21.618-17.525 39.143-39.143 39.143z" fill="#b2f0fb"/><path d="m428.975 348.94c-5.522 0-10-4.478-10-10v-55.435c0-18.034-14.814-32.706-33.022-32.706-18.209 0-33.022 14.672-33.022 32.706v55.435c0 5.522-4.478 10-10 10-5.523 0-10-4.478-10-10v-55.435c0-29.063 23.786-52.706 53.022-52.706s53.022 23.644 53.022 52.706v55.435c0 5.523-4.478 10-10 10z" fill="#020288"/></g></svg>