<svg id="Capa_1" enable-background="new 0 0 512 512" height="512" viewBox="0 0 512 512" width="512" xmlns="http://www.w3.org/2000/svg"><g><g fill="#020288"><path d="m262.681 77.091h-52.021c-5.523 0-10 4.478-10 10v331.271c0 5.522 4.477 10 10 10h52.021c5.522 0 10-4.478 10-10v-331.271c0-5.522-4.478-10-10-10zm-10 331.27h-32.021v-311.27h32.021z"/><path d="m171.351 77.091h-42.021c-5.523 0-10 4.478-10 10v331.271c0 5.522 4.477 10 10 10h42.021c5.523 0 10-4.478 10-10v-331.271c0-5.522-4.477-10-10-10zm-10 331.27h-22.021v-311.27h22.021z"/><path d="m52.021 77.091h-42.021c-5.523 0-10 4.478-10 10v331.271c0 5.522 4.477 10 10 10h42.021c5.523 0 10-4.478 10-10v-331.271c0-5.522-4.477-10-10-10zm-10 331.27h-22.021v-311.27h22.021z"/><path d="m90.021 77.091c-5.523 0-10 4.478-10 10v331.271c0 5.522 4.477 10 10 10s10-4.478 10-10v-331.271c0-5.522-4.477-10-10-10z"/><path d="m383.319 385.129v33.232c0 5.522 4.478 10 10 10s10-4.478 10-10v-36.626c-6.548 1.848-13.256 2.979-20 3.394z"/><path d="m403.319 218.985v-131.894c0-5.522-4.478-10-10-10s-10 4.478-10 10v128.5c6.744.415 13.452 1.546 20 3.394z"/><path d="m344.011 379.251v29.111h-32.021v-49.225c-.564-.538-1.123-1.083-1.677-1.637-7.711-7.711-13.819-16.419-18.323-25.709v86.57c0 5.522 4.478 10 10 10h52.021c5.522 0 10-4.478 10-10v-34.002c-6.795-.966-13.504-2.669-20-5.108z"/><path d="m310.312 243.221c.554-.554 1.113-1.1 1.677-1.637v-144.493h32.021v124.379c6.496-2.439 13.206-4.142 20-5.108v-129.271c0-5.522-4.478-10-10-10h-52.021c-5.522 0-10 4.478-10 10v181.839c4.504-9.29 10.612-17.998 18.323-25.709z"/></g><g><g><g><path d="m502 434.909c-2.56 0-5.118-.977-7.071-2.929l-72.333-72.334c-3.905-3.905-3.905-10.237 0-14.143 3.908-3.904 10.238-3.902 14.143 0l72.333 72.334c3.905 3.905 3.905 10.237 0 14.143-1.954 1.953-4.513 2.929-7.072 2.929z" fill="#020288"/></g><g><circle cx="377.451" cy="300.36" fill="#b2f0fb" r="94.95"/></g></g><g><g><path d="m373.102 329.479c-2.635 0-5.17-1.041-7.048-2.906l-16.141-16.035c-3.918-3.892-3.938-10.224-.046-14.142 3.892-3.92 10.225-3.939 14.142-.046l8.447 8.392 25.286-29.95c3.562-4.221 9.872-4.754 14.092-1.189 4.22 3.563 4.753 9.871 1.189 14.092l-32.281 38.236c-1.801 2.134-4.413 3.417-7.203 3.539-.146.006-.292.009-.437.009z" fill="#020288"/></g></g></g></g></svg>