<svg id="Capa_1" enable-background="new 0 0 512 512" height="512" viewBox="0 0 512 512" width="512" xmlns="http://www.w3.org/2000/svg"><g><g fill="#020288"><path d="m256 43.162c-5.523 0-10 4.477-10 10v18.942c0 5.522 4.477 10 10 10s10-4.478 10-10v-18.942c0-5.522-4.477-10-10-10z"/><path d="m256 434.31c-5.523 0-10 4.478-10 10v18.943c0 5.522 4.477 10 10 10s10-4.478 10-10v-18.943c0-5.522-4.477-10-10-10z"/><path d="m461.046 248.208h-18.943c-5.523 0-10 4.478-10 10s4.477 10 10 10h18.943c5.523 0 10-4.478 10-10s-4.477-10-10-10z"/><path d="m69.897 248.208h-18.943c-5.523 0-10 4.478-10 10s4.477 10 10 10h18.943c5.523 0 10-4.478 10-10s-4.477-10-10-10z"/><path d="m393.918 106.147-13.395 13.395c-3.905 3.905-3.905 10.237 0 14.143 1.953 1.952 4.512 2.929 7.071 2.929s5.119-.977 7.071-2.929l13.395-13.395c3.905-3.905 3.905-10.237 0-14.143-3.905-3.904-10.237-3.904-14.142 0z"/><path d="m117.334 382.731-13.395 13.395c-3.905 3.905-3.905 10.237 0 14.143 1.953 1.952 4.512 2.929 7.071 2.929s5.119-.977 7.071-2.929l13.395-13.395c3.905-3.905 3.905-10.237 0-14.143-3.905-3.904-10.237-3.904-14.142 0z"/><path d="m394.666 382.731c-3.905-3.904-10.237-3.904-14.143 0-3.905 3.905-3.905 10.237 0 14.143l13.395 13.395c1.953 1.952 4.512 2.929 7.071 2.929s5.119-.977 7.071-2.929c3.905-3.905 3.905-10.237 0-14.143z"/><path d="m118.082 106.147c-3.905-3.904-10.237-3.904-14.143 0-3.905 3.905-3.905 10.237 0 14.143l13.395 13.395c1.953 1.952 4.512 2.929 7.071 2.929s5.119-.977 7.071-2.929c3.905-3.905 3.905-10.237 0-14.143z"/><path d="m437.019 74.98c-48.352-48.351-112.639-74.98-181.019-74.98s-132.667 26.629-181.019 74.98c-48.353 48.353-74.981 112.64-74.981 181.02s26.628 132.667 74.981 181.02c48.352 48.351 112.639 74.98 181.019 74.98s132.667-26.629 181.019-74.98c48.353-48.353 74.981-112.64 74.981-181.02s-26.628-132.667-74.981-181.02zm-181.019 417.02c-130.131 0-236-105.869-236-236s105.869-236 236-236 236 105.869 236 236-105.869 236-236 236z"/></g><g><g><circle cx="256" cy="256" fill="#fff59b" r="147.296"/></g><path d="m320.075 290.568c0-18.977-10.49-35.541-25.958-44.169 7.733-8.045 12.498-18.988 12.498-31.028 0-20.299-13.576-37.476-32.097-42.874v-10.149c0-5.523-4.477-10-10-10s-10 4.477-10 10v8.386h-25.939v-8.386c0-5.523-4.477-10-10-10s-10 4.477-10 10v8.386h-6.653c-5.523 0-10 4.478-10 10 0 5.523 4.477 10 10 10h6.653v131.051h-6.653c-5.523 0-10 4.477-10 10 0 5.522 4.477 10 10 10h6.653v7.868c0 5.522 4.477 10 10 10s10-4.478 10-10v-7.868c1.165-.003 2.282-.205 3.321-.574 6.82-.028 15.229-.061 22.618-.086v8.528c0 5.522 4.477 10 10 10s10-4.478 10-10v-8.792c25.523-2.43 45.557-24.058 45.557-50.293zm-33.461-75.197c0 13.617-10.988 24.696-24.493 24.696h-33.543v-49.334h33.543c13.505 0 24.493 11.053 24.493 24.638zm-16.888 105.717c-7.487 0-28.49.083-41.147.136v-61.156h41.147c16.734 0 30.349 13.683 30.349 30.501 0 16.828-13.615 30.519-30.349 30.519z" fill="#020288"/></g></g></svg>