<svg id="Capa_1" enable-background="new 0 0 512 512" height="512" viewBox="0 0 512 512" width="512" xmlns="http://www.w3.org/2000/svg"><g><g><path d="m256 512c-3.4 0-6.566-1.728-8.407-4.586l-46.401-72.049c-46.11-11.778-87.808-38.663-117.771-76.023-31.295-39.021-48.53-88.114-48.53-138.234 0-59.06 23-114.585 64.762-156.347 41.76-41.762 97.286-64.761 156.347-64.761s114.586 22.999 156.349 64.761c41.762 41.762 64.762 97.287 64.762 156.347 0 50.12-17.235 99.213-48.53 138.234-29.964 37.36-71.662 64.245-117.772 76.023l-46.4 72.049c-1.843 2.858-5.01 4.586-8.409 4.586zm0-492c-110.893 0-201.11 90.217-201.11 201.107 0 93.802 63.674 174.302 154.844 195.761 2.521.594 4.714 2.143 6.116 4.32l40.15 62.343 40.149-62.343c1.402-2.178 3.595-3.727 6.116-4.32 91.17-21.459 154.845-101.959 154.845-195.761 0-110.89-90.218-201.107-201.11-201.107z" fill="#020288"/></g><g><g><ellipse cx="256" cy="221.107" fill="#ffbdbc" rx="144.319" ry="144.317"/></g><g><g><g><path d="m232.192 291.378c-1.29 0-2.601-.252-3.865-.782-5.093-2.137-7.488-7.998-5.351-13.091l49.197-117.225c2.137-5.092 7.997-7.486 13.091-5.351 5.092 2.137 7.488 7.998 5.351 13.091l-49.197 117.225c-1.607 3.828-5.319 6.133-9.226 6.133z" fill="#020288"/></g><g><path d="m218.152 219.207c-17.5 0-31.738-15.817-31.738-35.26 0-19.442 14.237-35.261 31.738-35.261s31.738 15.818 31.738 35.261-14.237 35.26-31.738 35.26zm0-50.521c-6.362 0-11.738 6.988-11.738 15.261 0 8.271 5.375 15.26 11.738 15.26 6.362 0 11.738-6.988 11.738-15.26s-5.376-15.261-11.738-15.261z" fill="#020288"/></g><g><path d="m293.847 299.356c-17.5 0-31.737-15.818-31.737-35.261s14.237-35.261 31.737-35.261c17.501 0 31.738 15.818 31.738 35.261s-14.237 35.261-31.738 35.261zm0-50.521c-6.362 0-11.737 6.988-11.737 15.261 0 8.272 5.375 15.261 11.737 15.261 6.363 0 11.738-6.988 11.738-15.261.001-8.273-5.374-15.261-11.738-15.261z" fill="#020288"/></g></g></g></g></g></svg>