<svg id="Capa_1" enable-background="new 0 0 512 512" height="512" viewBox="0 0 512 512" width="512" xmlns="http://www.w3.org/2000/svg"><g><path d="m76.596 218.126h358.809v192.068h-358.809z" fill="#a4fcc4"/><g fill="#020288"><path d="m502 132.668h-165.935l-48.711-48.763c3.094-5.338 4.868-11.533 4.868-18.136 0-19.988-16.249-36.25-36.222-36.25s-36.222 16.262-36.222 36.25c0 6.603 1.773 12.798 4.868 18.136l-48.711 48.763h-165.935c-5.523 0-10 4.477-10 10v329.813c0 5.522 4.477 10 10 10h492c5.522 0 10-4.478 10-10v-329.813c0-5.523-4.478-10-10-10zm-246-83.149c8.944 0 16.222 7.29 16.222 16.25s-7.277 16.25-16.222 16.25-16.222-7.29-16.222-16.25 7.278-16.25 16.222-16.25zm-16.958 48.275c5.062 2.696 10.835 4.225 16.958 4.225s11.896-1.529 16.958-4.225l34.837 34.874h-103.59zm252.958 364.687h-472v-309.813h135.956l-7.091 7.099c-3.902 3.907-3.899 10.239.008 14.143 1.952 1.95 4.51 2.925 7.067 2.925 2.561 0 5.122-.978 7.075-2.933l21.211-21.233h143.547l21.211 21.233c1.953 1.955 4.514 2.933 7.075 2.933 2.558 0 5.115-.975 7.067-2.925 3.907-3.903 3.91-10.235.008-14.143l-7.091-7.099h135.957z"/><path d="m394.733 276.035h-.099c-5.522.054-9.956 4.574-9.903 10.097l.375 38.757-30.629-44.401c-2.487-3.604-7.027-5.172-11.205-3.869-4.18 1.302-7.026 5.171-7.026 9.548v70.071c0 5.522 4.478 10 10 10s10-4.478 10-10v-37.964l29.101 42.185c2.89 4.176 7.729 5.944 12.329 4.51 4.685-1.463 7.711-5.818 7.711-11.193l-.655-67.836c-.054-5.492-4.521-9.905-9.999-9.905z"/><path d="m312.761 296.677c5.522 0 10-4.478 10-10s-4.478-10-10-10h-29.278c-5.522 0-10 4.478-10 10v69.561c0 5.522 4.478 10 10 10h29.278c5.522 0 10-4.478 10-10s-4.478-10-10-10h-19.278v-14.78h17.119c5.522 0 10-4.478 10-10s-4.478-10-10-10h-17.119v-14.78h19.278z"/><path d="m205.597 286.034v70.202c0 5.522 4.477 10 10 10 5.522 0 10-4.478 10-10v-20.546c3.574-.018 7.284-.033 9.526-.033 16.64 0 30.178-13.373 30.178-29.81.001-16.439-13.537-29.812-30.177-29.812-6.509 0-13.017 0-19.526 0-.672.02-4.629.206-7.502 3.506-2.291 2.631-2.476 5.615-2.499 6.493zm29.527 29.623c-2.226 0-5.893.015-9.444.032-.018-3.697-.033-7.543-.033-9.843 0-1.961-.009-5.933-.02-9.812h9.497c5.517 0 10.178 4.493 10.178 9.812 0 5.318-4.661 9.811-10.178 9.811z"/><path d="m151.677 276.035c-24.848 0-45.064 20.232-45.064 45.102 0 24.868 20.216 45.101 45.064 45.101s45.063-20.232 45.063-45.101-20.216-45.102-45.063-45.102zm0 70.202c-13.82 0-25.064-11.26-25.064-25.101s11.243-25.102 25.064-25.102c13.82 0 25.063 11.261 25.063 25.102 0 13.842-11.243 25.101-25.063 25.101z"/></g></g></svg>