<svg id="Capa_1" enable-background="new 0 0 512 512" height="512" viewBox="0 0 512 512" width="512" xmlns="http://www.w3.org/2000/svg"><g><g><g fill="#020288"><path d="m353.408 344.24c-3.37 0-6.705-.149-10-.439v68.367h-277.211v-327.623h277.211v55.345c3.295-.29 6.63-.439 10-.439s6.705.149 10 .439v-91.787c0-26.524-21.66-48.103-48.284-48.103h-220.643c-26.624 0-48.284 21.579-48.284 48.103v415.704c0 26.574 21.619 48.193 48.193 48.193h220.825c26.574 0 48.193-21.619 48.193-48.193v-120.006c-3.294.291-6.63.439-10 .439zm-287.211-296.137c0-15.497 12.688-28.103 28.284-28.103h220.643c15.596 0 28.284 12.606 28.284 28.103v16.442h-277.211zm277.211 415.704c0 15.546-12.647 28.193-28.193 28.193h-220.825c-15.545 0-28.193-12.647-28.193-28.193v-31.639h277.211z"/><path d="m198.136 472.084h13.333c5.523 0 10-4.478 10-10 0-5.523-4.477-10-10-10h-13.333c-5.523 0-10 4.477-10 10 0 5.522 4.477 10 10 10z"/></g><g><path d="m353.408 129.451c-62.074 0-112.394 50.321-112.394 112.395 0 24.643 7.931 47.432 21.379 65.957l-21.379 43.027 62.123-8.432c15.127 7.577 32.201 11.842 50.271 11.842 62.074 0 112.395-50.321 112.395-112.394s-50.321-112.395-112.395-112.395z" fill="#b2f0fb"/><g><path d="m364.132 270.938h-.724v-36.916h.724c5.523 0 10-4.478 10-10s-4.477-10-10-10h-21.447c-5.523 0-10 4.478-10 10s4.477 10 10 10h.724v36.916h-.724c-5.523 0-10 4.478-10 10s4.477 10 10 10h21.447c5.523 0 10-4.478 10-10s-4.477-10-10-10z" fill="#020288"/></g></g></g><circle cx="353.407" cy="187.505" fill="#020288" r="9.956"/></g></svg>