<svg id="Capa_1" enable-background="new 0 0 512 512" height="512" viewBox="0 0 512 512" width="512" xmlns="http://www.w3.org/2000/svg"><g><g fill="#020288"><path d="m225.638 307.751v-93.088c0-5.523-4.477-10-10-10h-27.783v-5.229c0-18.362-15.017-33.302-33.475-33.302s-33.474 14.939-33.474 33.302v5.229h-27.614c-5.523 0-10 4.477-10 10v93.088c0 17.291 14.067 31.358 31.358 31.358h79.631c17.29 0 31.357-14.067 31.357-31.358zm-84.731-108.316c0-7.335 6.045-13.302 13.474-13.302 7.43 0 13.475 5.967 13.475 13.302v5.229h-26.949zm-37.615 108.316v-83.088h17.615v10.02c0 5.522 4.477 10 10 10s10-4.478 10-10v-10.02h26.949v10.02c0 5.522 4.477 10 10 10s10-4.478 10-10v-10.02h17.783v83.088c0 6.263-5.095 11.358-11.357 11.358h-79.632c-6.263 0-11.358-5.095-11.358-11.358z"/><path d="m502 373.966h-9.383v-288.351c0-22.468-18.279-40.747-40.747-40.747h-391.74c-22.468 0-40.747 18.279-40.747 40.747v288.351h-9.383c-5.523 0-10 4.478-10 10v37.406c0 25.232 20.527 45.76 45.759 45.76h420.481c25.232 0 45.759-20.527 45.759-45.76v-37.406c.001-5.523-4.476-10-9.999-10zm-441.87-309.098h391.74c11.44 0 20.747 9.307 20.747 20.747v27.836h-433.234v-27.836c0-11.44 9.307-20.747 20.747-20.747zm-20.747 68.583h433.234v240.515h-144.234c-5.523 0-10 4.478-10 10 0 6.387-5.196 11.583-11.583 11.583h-101.6c-6.387 0-11.583-5.196-11.583-11.583 0-5.522-4.477-10-10-10h-144.234zm452.617 287.921c0 14.204-11.556 25.76-25.759 25.76h-420.482c-14.204 0-25.759-11.556-25.759-25.76v-27.406h155.239c4.193 12.528 16.039 21.583 29.96 21.583h101.601c13.921 0 25.768-9.055 29.96-21.583h155.24z"/><path d="m250.383 97.979h11.234c5.523 0 10-4.478 10-10s-4.477-10-10-10h-11.234c-5.523 0-10 4.478-10 10s4.477 10 10 10z"/></g><g><g><path d="m272.553 271.886h160.201v50.279h-160.201z" fill="#fff59b"/></g><g><path d="m272.553 184.403h160.201v50.279h-160.201z" fill="#fff59b"/></g></g></g></svg>