<svg id="Capa_1" enable-background="new 0 0 512 512" height="512" viewBox="0 0 512 512" width="512" xmlns="http://www.w3.org/2000/svg"><g><g><path d="m182.8 245.634h146.401v175.733h-146.401z" fill="#b2f0fb"/></g><g fill="#020288"><path d="m249.334 472.084h13.333c5.523 0 10-4.478 10-10 0-5.523-4.477-10-10-10h-13.333c-5.523 0-10 4.477-10 10 0 5.522 4.477 10 10 10z"/><path d="m414.606 147.622v-99.52c0-26.523-21.661-48.102-48.285-48.102h-220.642c-26.624 0-48.284 21.579-48.284 48.103v99.516c-.007.429-.007.857 0 1.284v314.904c0 26.574 21.619 48.193 48.193 48.193h220.825c26.574 0 48.193-21.619 48.193-48.193v-314.908c.006-.424.007-.85 0-1.277zm-20 1.097c-.111 4.863-2.034 9.425-5.466 12.922-3.701 3.773-8.675 5.851-14.005 5.851-10.909 0-19.784-8.875-19.784-19.784 0-5.522-4.477-10-10-10s-10 4.478-10 10c0 10.909-8.875 19.784-19.784 19.784s-19.784-8.875-19.784-19.784c0-5.522-4.477-10-10-10s-10 4.478-10 10c0 10.909-8.875 19.784-19.784 19.784s-19.784-8.875-19.784-19.784c0-5.522-4.477-10-10-10s-10 4.478-10 10c0 10.909-8.875 19.784-19.784 19.784s-19.784-8.875-19.784-19.784c0-5.522-4.477-10-10-10s-10 4.478-10 10c0 10.909-8.875 19.784-19.784 19.784-5.329 0-10.303-2.077-14.004-5.85-3.431-3.497-5.354-8.058-5.466-12.919v-64.178h277.211v64.174zm-277.211 33.701c5.863 3.311 12.52 5.071 19.47 5.071 11.84 0 22.49-5.2 29.784-13.436 7.294 8.235 17.944 13.436 29.784 13.436s22.49-5.2 29.784-13.436c7.294 8.235 17.944 13.436 29.784 13.436s22.49-5.2 29.784-13.436c7.294 8.235 17.944 13.436 29.784 13.436s22.49-5.2 29.784-13.436c7.294 8.235 17.944 13.436 29.784 13.436 6.95 0 13.607-1.761 19.471-5.071v229.748h-277.213zm28.284-162.42h220.643c15.596 0 28.284 12.606 28.284 28.103v16.442h-277.211v-16.442c0-15.497 12.688-28.103 28.284-28.103zm248.927 443.807c0 15.546-12.648 28.193-28.193 28.193h-220.826c-15.545 0-28.193-12.647-28.193-28.193v-31.639h277.211v31.639z"/></g></g></svg>