<svg id="Capa_1" enable-background="new 0 0 512 512" height="512" viewBox="0 0 512 512" width="512" xmlns="http://www.w3.org/2000/svg"><g><g fill="#020288"><path d="m411.36 320.021v1.568c0 5.522 4.477 10 10 10 5.522 0 10-4.478 10-10v-.803c22.466-2.789 32.266-17.362 33.918-30.369 2.309-18.175-9.596-35.646-28.948-42.487-1.746-.617-3.402-1.208-4.97-1.773v-32.985c4.176 1.23 7.066 3.34 8.473 5.344 3.173 4.521 9.41 5.614 13.93 2.441 4.522-3.173 5.614-9.409 2.441-13.93-4.789-6.824-13.488-12.515-24.844-14.331v-2.285c0-5.522-4.478-10-10-10-5.523 0-10 4.478-10 10v3.051c-1.581.348-3.188.765-4.819 1.257-12.689 3.822-22.268 16.15-23.293 29.979-1.013 13.651 6.259 25.515 19.448 31.733 1.895.894 4.873 2.132 8.664 3.609v39.434c-5.339-1.564-10.257-4.218-13.44-8.169-3.465-4.303-9.761-4.979-14.06-1.516-4.302 3.465-4.98 9.76-1.516 14.061 7.41 9.201 18.366 14.103 29.016 16.171zm34.078-32.124c-.824 6.493-5.885 10.974-14.077 12.637v-33.093c10.862 4.557 14.942 13.639 14.077 20.456zm-34.21-49.554c-7.137-3.365-8.308-8.473-8.034-12.165.385-5.202 3.823-10.157 8.167-11.968v24.195c-.046-.021-.09-.042-.133-.062z"/><path d="m502 95.425h-492c-5.523 0-10 4.478-10 10v301.15c0 5.522 4.477 10 10 10h492c5.522 0 10-4.478 10-10v-301.15c0-5.523-4.478-10-10-10zm-10 301.15h-472v-281.15h472z"/><path d="m339.445 359.83c5.522 0 10-4.478 10-10v-12.213c0-5.522-4.478-10-10-10s-10 4.478-10 10v12.213c0 5.523 4.478 10 10 10z"/><path d="m339.445 301.348c5.522 0 10-4.478 10-10v-12.213c0-5.522-4.478-10-10-10s-10 4.478-10 10v12.213c0 5.522 4.478 10 10 10z"/><path d="m339.445 242.865c5.522 0 10-4.478 10-10v-12.213c0-5.522-4.478-10-10-10s-10 4.478-10 10v12.213c0 5.523 4.478 10 10 10z"/><path d="m339.445 184.383c5.522 0 10-4.477 10-10v-12.213c0-5.522-4.478-10-10-10s-10 4.478-10 10v12.213c0 5.522 4.478 10 10 10z"/></g><g><path d="m293.438 204.91c.774-8.75.198-16.216-5.297-21.973-19.904-20.85-66.939 3.212-90.198 21.632-3.563-2.52-7.711-4.777-12.205-5.735-3.621-1.126-7.47-1.733-11.461-1.733-3.86 0-7.587.568-11.103 1.624-4.632.838-8.906 2.983-12.564 5.569-23.259-18.419-70.293-41.759-90.197-20.909-5.495 5.757-6.072 12.774-5.297 21.524l-1.647 61.251c1.469 45.686 53.96 30.915 87.336 11.969v58.997l33.472-18.737 33.472 18.737v-58.997c33.376 18.946 85.867 33.717 87.336-11.969z" fill="#ffbdbc"/></g></g></svg>