<svg id="Capa_1" enable-background="new 0 0 512 512" height="512" viewBox="0 0 512 512" width="512" xmlns="http://www.w3.org/2000/svg"><g><path d="m502 332.929h-1.468v-66.115c.015-1.428-.344-2.937-.836-4.008l-40.366-97.055c-1.551-3.729-5.194-6.16-9.233-6.16h-66.974v-56.935c0-17.777-14.439-32.24-32.187-32.24h-39.89l.538 20h39.352c6.72 0 12.187 5.491 12.187 12.24v230.271h-331.655v-230.27c0-6.749 5.467-12.24 12.187-12.24h33.379l.538-20h-33.917c-17.748 0-32.187 14.463-32.187 32.24v230.271h-1.468c-5.523 0-10 4.477-10 10v68.632c0 5.523 4.477 10 10 10h53.074c-.998 4.23-1.527 8.642-1.527 13.175 0 31.413 25.377 56.969 56.571 56.969 31.193 0 56.57-25.556 56.57-56.969 0-4.533-.529-8.945-1.527-13.175h177.863c-.998 4.23-1.527 8.642-1.527 13.175 0 31.413 25.377 56.969 56.571 56.969 31.193 0 56.571-25.556 56.571-56.969 0-4.533-.529-8.945-1.527-13.175h40.888c5.523 0 10-4.477 10-10v-68.632c0-5.522-4.477-9.999-10-9.999zm-118.875-153.337h60.301l32.117 77.222h-92.418zm0 97.222h97.408v56.109h-97.408zm-265.007 194.89c-20.165 0-36.571-16.584-36.571-36.969s16.406-36.969 36.571-36.969 36.57 16.584 36.57 36.969c.001 20.385-16.405 36.969-36.57 36.969zm287.95 0c-20.165 0-36.571-16.584-36.571-36.969s16.406-36.969 36.571-36.969 36.571 16.584 36.571 36.969-16.406 36.969-36.571 36.969zm85.932-70.144h-39.244c-.237 0-.472.009-.705.025-10.275-14.413-27.059-23.819-45.983-23.819-18.913 0-35.688 9.395-45.965 23.794h-195.29c-.24 0-.477.009-.713.026-10.275-14.413-27.059-23.819-45.982-23.819-18.913 0-35.688 9.395-45.965 23.794h-52.153v-48.632h472z" fill="#020288"/></g><g><path d="m320.553 52.118c.82-9.27.209-17.18-5.612-23.279-21.087-22.089-70.918 3.403-95.56 22.918-3.775-2.67-8.169-5.061-12.931-6.076-3.836-1.193-7.914-1.836-12.143-1.836-4.089 0-8.038.602-11.763 1.721-4.908.888-9.436 3.161-13.31 5.9-24.641-19.514-74.471-44.242-95.558-22.152-5.822 6.099-6.433 13.533-5.612 22.804l-1.744 64.892c1.556 48.402 57.168 32.753 92.528 12.681v62.504l35.461-19.851 35.461 19.851v-62.505c35.36 20.072 90.972 35.721 92.528-12.681z" fill="#ffbdbc"/></g></svg>