<svg id="Capa_1" enable-background="new 0 0 512 512" height="512" viewBox="0 0 512 512" width="512" xmlns="http://www.w3.org/2000/svg"><g><g><g><path d="m256 512c-3.4 0-6.566-1.728-8.407-4.586l-46.401-72.049c-46.11-11.778-87.808-38.663-117.771-76.023-31.295-39.021-48.53-88.114-48.53-138.234 0-59.06 23-114.585 64.762-156.347 41.761-41.762 97.286-64.761 156.347-64.761s114.586 22.999 156.348 64.761 64.762 97.287 64.762 156.347c0 50.12-17.235 99.213-48.53 138.233-29.963 37.361-71.661 64.246-117.771 76.024l-46.401 72.049c-1.842 2.858-5.008 4.586-8.408 4.586zm0-492c-110.893 0-201.11 90.217-201.11 201.107 0 93.802 63.674 174.302 154.844 195.761 2.521.594 4.714 2.143 6.116 4.32l40.15 62.343 40.149-62.343c1.402-2.178 3.595-3.727 6.116-4.32 91.17-21.459 154.844-101.959 154.844-195.761.001-110.89-90.216-201.107-201.109-201.107z" fill="#020288"/></g></g><g><ellipse cx="256" cy="221.107" fill="#ffbdbc" rx="144.319" ry="144.317"/><path d="m316.68 157.959h-22.645v-1.64c0-21.089-17.108-38.246-38.135-38.246-21.028 0-38.136 17.157-38.136 38.246v1.64h-22.443c-5.523 0-10 4.477-10 10v100.529c0 17.262 14.044 31.306 31.305 31.306h78.749c17.262 0 31.305-14.044 31.305-31.306v-100.529c0-5.523-4.477-10-10-10zm-78.916-1.64c0-10.061 8.136-18.246 18.136-18.246s18.135 8.186 18.135 18.246v1.64h-36.271zm68.916 112.169c0 6.234-5.071 11.306-11.305 11.306h-78.749c-6.234 0-11.305-5.071-11.305-11.306v-90.529h12.443v17.508c0 5.523 4.477 10 10 10s10-4.477 10-10v-17.508h36.271v17.508c0 5.523 4.477 10 10 10s10-4.477 10-10v-17.508h12.645z" fill="#020288"/></g></g></svg>