<svg id="Capa_1" enable-background="new 0 0 512 512" height="512" viewBox="0 0 512 512" width="512" xmlns="http://www.w3.org/2000/svg"><g><g><path d="m511.815 130.171c-.015-5.513-4.487-9.974-10-9.974h-151.09c-3.183 7.309-7.441 14.042-12.573 20h153.688l.135 52.1h-398.526l-6.746-52.1h151.807c-5.133-5.958-9.39-12.691-12.573-20h-142.099l-11.714-72.433c-.783-4.843-4.966-8.403-9.872-8.403h-52.252c-5.523 0-10 4.477-10 10s4.477 10 10 10h43.739l11.686 72.264 9.318 71.956c.001.009.003.018.004.027.002.016.004.032.006.048l23.847 173.822c2.454 17.894 17.366 31.53 35.066 32.404-8.169 9.779-13.098 22.412-13.098 36.188 0 30.957 24.896 56.143 55.496 56.143s55.495-25.186 55.495-56.143c0-13.755-4.915-26.37-13.061-36.143h122.944c-8.146 9.773-13.061 22.389-13.061 36.143 0 30.957 24.895 56.143 55.496 56.143 30.6 0 55.495-25.186 55.495-56.143 0-14.081-5.15-26.967-13.645-36.833 22.661-3.723 41.018-22.146 44.255-45.742l20.741-151.198h11.277c2.656 0 5.204-1.057 7.08-2.938s2.927-4.431 2.92-7.088zm-335.751 352.042c-19.572 0-35.496-16.214-35.496-36.143 0-19.93 15.924-36.143 35.496-36.143s35.495 16.214 35.495 36.143-15.923 36.143-35.495 36.143zm207.812 0c-19.572 0-35.496-16.214-35.496-36.143 0-19.93 15.924-36.143 35.496-36.143s35.495 16.214 35.495 36.143-15.923 36.143-35.495 36.143zm66.29-121.436c-2.279 16.618-16.421 29.149-32.894 29.149h-281.8c-8.538 0-15.872-6.52-17.058-15.167l-22.287-162.462h374.407z" fill="#020288"/></g><g><g><ellipse cx="288.331" cy="88.711" fill="#ffbdbc" rx="78.925" ry="78.925" transform="matrix(.707 -.707 .707 .707 21.722 229.864)"/></g><g><path d="m164.713 357.345-10.615-116.189h59.461v116.189z" fill="#ffbdbc"/></g><g><path d="m226.744 274.827h116.189v48.846h-116.189z" fill="#ffbdbc" transform="matrix(0 1 -1 0 584.089 14.412)"/></g><g><path d="m356.118 357.345v-116.189h70.077l-21.231 116.189z" fill="#ffbdbc"/></g><path d="m307.852 98.712h-39.042c-5.522 0-10-4.477-10-10s4.478-10 10-10h39.042c5.522 0 10 4.477 10 10s-4.478 10-10 10z" fill="#020288"/></g></g></svg>