<svg id="Capa_1" enable-background="new 0 0 512 512" height="512" viewBox="0 0 512 512" width="512" xmlns="http://www.w3.org/2000/svg"><g><g><path d="m511.815 115.384c-.015-5.513-4.487-9.974-10-9.974h-417.977l-11.714-72.433c-.783-4.843-4.966-8.403-9.872-8.403h-52.252c-5.523 0-10 4.477-10 10s4.477 10 10 10h43.739l11.686 72.265 9.318 71.956c.001.009.003.018.004.027.002.016.004.032.006.048l23.847 173.821c2.454 17.893 17.366 31.53 35.066 32.403-8.169 9.779-13.098 22.412-13.098 36.188 0 30.957 24.896 56.144 55.496 56.144s55.495-25.186 55.495-56.144c0-13.755-4.915-26.37-13.061-36.143h122.944c-8.146 9.773-13.061 22.389-13.061 36.143 0 30.957 24.895 56.144 55.496 56.144 30.6 0 55.495-25.186 55.495-56.144 0-14.081-5.15-26.967-13.645-36.833 22.661-3.723 41.018-22.146 44.255-45.741l20.741-151.199h11.277c2.656 0 5.204-1.057 7.08-2.938s2.927-4.431 2.92-7.088zm-19.975 10.026.135 52.1h-398.526l-6.746-52.1zm-280.281 305.873c0 19.93-15.923 36.144-35.495 36.144s-35.496-16.214-35.496-36.144 15.924-36.143 35.496-36.143c19.572-.001 35.495 16.213 35.495 36.143zm172.317 36.143c-19.572 0-35.496-16.214-35.496-36.144s15.924-36.143 35.496-36.143 35.495 16.214 35.495 36.143-15.923 36.144-35.495 36.144zm66.29-121.435c-2.279 16.617-16.421 29.148-32.894 29.148h-281.8c-8.538 0-15.872-6.52-17.058-15.166l-22.287-162.463h374.407z" fill="#020288"/></g><g><path d="m356.118 342.558v-116.189h70.077l-21.231 116.189z" fill="#e2c4ff"/><g><path d="m226.744 260.04h116.189v48.846h-116.189z" fill="#e2c4ff" transform="matrix(0 1 -1 0 569.302 -.375)"/><g><path d="m164.713 342.558-10.615-116.189h59.461v116.189z" fill="#e2c4ff"/></g></g></g></g></svg>