<svg id="Capa_1" enable-background="new 0 0 512 512" height="512" viewBox="0 0 512 512" width="512" xmlns="http://www.w3.org/2000/svg"><g><g><path d="m437.537 112.635h-61.617v-24.784c0-48.442-39.602-87.851-88.278-87.851-11.146 0-21.815 2.066-31.642 5.833-9.827-3.767-20.496-5.833-31.642-5.833-48.677 0-88.278 39.409-88.278 87.851v24.784h-61.617c-5.522 0-10 4.477-10 10v341.939c0 26.15 21.306 47.426 47.493 47.426h288.277c26.083 0 47.304-21.224 47.304-47.31v-342.055c0-5.523-4.477-10-10-10zm-149.895-92.635c37.648 0 68.278 30.438 68.278 67.851v24.784h-43.282v-24.784c0-27.106-12.4-51.383-31.851-67.511 2.255-.225 4.541-.34 6.855-.34zm-31.642 7.735c21.761 11.356 36.638 34.042 36.638 60.115v24.784h-73.275v-24.783c-.001-26.074 14.876-48.759 36.637-60.116zm-31.642-7.735c2.313 0 4.6.115 6.855.34-19.451 16.128-31.851 40.405-31.851 67.511v24.784h-43.282v-24.784c0-37.413 30.63-67.851 68.278-67.851zm-139.895 444.574v-331.939h41.617v359.365h-14.124c-15.16 0-27.493-12.303-27.493-27.426zm343.074.116c0 15.058-12.248 27.31-27.304 27.31h-254.153v-359.365h53.282v51.286c0 5.523 4.477 10 10 10 5.522 0 10-4.477 10-10v-51.286h136.558v51.286c0 5.523 4.478 10 10 10 5.523 0 10-4.477 10-10v-51.286h51.617z" fill="#020288"/></g><g><g><g><g><path d="m189.856 238.293h204.868v205.548h-204.868z" fill="#fff59b"/></g></g></g><g><g><path d="m267.31 407.268c-1.29 0-2.602-.252-3.866-.782-5.092-2.137-7.488-7.998-5.351-13.091l49.196-117.226c2.137-5.092 7.996-7.486 13.091-5.351 5.092 2.137 7.488 7.998 5.351 13.091l-49.196 117.226c-1.607 3.828-5.318 6.133-9.225 6.133z" fill="#020288"/></g><g><path d="m253.269 335.097c-17.5 0-31.737-15.818-31.737-35.261 0-19.442 14.237-35.26 31.737-35.26 17.501 0 31.738 15.817 31.738 35.26 0 19.442-14.237 35.261-31.738 35.261zm0-50.521c-6.362 0-11.737 6.988-11.737 15.26s5.375 15.261 11.737 15.261c6.363 0 11.738-6.988 11.738-15.261 0-8.271-5.375-15.26-11.738-15.26z" fill="#020288"/></g><g><path d="m328.965 415.245c-17.501 0-31.738-15.817-31.738-35.26 0-19.442 14.237-35.261 31.738-35.261 17.5 0 31.737 15.818 31.737 35.261s-14.237 35.26-31.737 35.26zm0-50.52c-6.363 0-11.738 6.988-11.738 15.261 0 8.271 5.375 15.26 11.738 15.26 6.362 0 11.737-6.988 11.737-15.26 0-8.273-5.375-15.261-11.737-15.261z" fill="#020288"/></g></g></g></g></svg>