<svg id="Capa_1" enable-background="new 0 0 512 512" height="512" viewBox="0 0 512 512" width="512" xmlns="http://www.w3.org/2000/svg"><g><g><path d="m420.237 125.195-154.237-100.449v-14.746c0-5.523-4.477-10-10-10s-10 4.477-10 10v14.746l-154.237 100.449c-2.834 1.846-4.543 4.998-4.543 8.38v368.425c0 5.523 4.477 10 10 10h317.56c5.523 0 10-4.477 10-10v-368.425c0-3.382-1.709-6.535-4.543-8.38zm-164.237 6.491c5.523 0 10-4.477 10-10v-6.65c6.011 3.456 10.065 9.927 10.065 17.323 0 11.021-9.001 19.987-20.065 19.987s-20.065-8.966-20.065-19.987c0-7.396 4.054-13.867 10.065-17.323v6.65c0 5.523 4.477 10 10 10zm148.78 360.314h-297.56v-353.004l138.78-90.382v45.02c-17.27 4.444-30.065 20.122-30.065 38.726 0 22.049 17.973 39.987 40.065 39.987s40.065-17.938 40.065-39.987c0-18.604-12.796-34.282-30.065-38.726v-45.02l138.78 90.382z" fill="#020288"/></g><g><g><g><path d="m145.296 231.906h221.408v222.143h-221.408z" fill="#fff59b"/></g></g><g><path d="m229.003 413.715c-1.29 0-2.601-.251-3.865-.782-5.093-2.137-7.488-7.998-5.351-13.09l53.169-126.69c2.137-5.093 7.998-7.488 13.09-5.351 5.093 2.137 7.488 7.998 5.351 13.09l-53.169 126.689c-1.606 3.83-5.318 6.134-9.225 6.134z" fill="#020288"/></g><g><path d="m213.829 335.718c-18.468 0-33.493-16.732-33.493-37.3s15.025-37.3 33.493-37.3 33.493 16.732 33.493 37.3-15.025 37.3-33.493 37.3zm0-54.6c-7.314 0-13.493 7.922-13.493 17.3 0 9.377 6.179 17.3 13.493 17.3s13.493-7.922 13.493-17.3-6.179-17.3-13.493-17.3z" fill="#020288"/></g><g><path d="m295.636 422.337c-18.468 0-33.493-16.732-33.493-37.3 0-20.567 15.025-37.3 33.493-37.3s33.493 16.732 33.493 37.3c-.001 20.568-15.026 37.3-33.493 37.3zm0-54.599c-7.314 0-13.493 7.922-13.493 17.3s6.179 17.3 13.493 17.3 13.493-7.922 13.493-17.3-6.179-17.3-13.493-17.3z" fill="#020288"/></g></g></g></svg>