<svg id="Capa_1" enable-background="new 0 0 512 512" height="512" viewBox="0 0 512 512" width="512" xmlns="http://www.w3.org/2000/svg"><g><g><g fill="#020288"><path d="m502 312.115c-5.523 0-10 4.477-10 10v53.086c0 7.76-6.313 14.074-14.073 14.074h-443.854c-7.76 0-14.073-6.313-14.073-14.074v-26.045c4.293 1.956 9.056 3.055 14.073 3.055h330.908c5.523 0 10-4.477 10-10s-4.477-10-10-10h-330.908c-7.76 0-14.073-6.313-14.073-14.074v-33.956-147.382c0-7.76 6.313-14.074 14.073-14.074h330.908c5.523 0 10-4.477 10-10s-4.477-10-10-10h-330.908c-18.788 0-34.073 15.285-34.073 34.074v147.382 33.956 57.064c0 18.788 15.285 34.074 34.073 34.074h443.854c18.788 0 34.073-15.286 34.073-34.074v-53.086c0-5.523-4.477-10-10-10z"/><path d="m115.21 184.042c-1.825-4.438-6.103-7.303-10.9-7.303-.004 0-.007 0-.011 0-4.802.004-9.08 2.878-10.898 7.323-.031.076-.061.151-.09.228l-29.594 77.702c-1.966 5.161.625 10.938 5.786 12.904s10.939-.625 12.904-5.786l4.917-12.911h33.744l4.862 12.883c1.511 4.005 5.316 6.472 9.357 6.472 1.173 0 2.367-.208 3.529-.647 5.167-1.95 7.775-7.72 5.825-12.887l-29.325-77.706c-.033-.09-.069-.181-.106-.272zm-20.268 52.157 9.332-24.502 9.247 24.502z"/><path d="m162.992 177.905c-2.655 0-5.202 1.056-7.078 2.936s-2.927 4.428-2.922 7.083c0 .001.056 29.417.056 38.137 0 10.519.099 38.083.1 38.361.01 2.652 1.073 5.192 2.955 7.061 1.874 1.86 4.406 2.903 7.045 2.903h.038c.654-.002 16.102-.062 22.276-.17 23.222-.406 40.077-20.623 40.077-48.071 0-28.854-16.431-48.24-40.885-48.24zm42.547 48.24c0 13.796-6.316 27.827-20.426 28.074-2.765.048-7.578.087-11.999.115-.029-9.032-.066-21.851-.066-28.273 0-5.409-.021-18.773-.038-28.156h11.643c19.38 0 20.886 21.615 20.886 28.24z"/><path d="m245.841 177.905c-2.655 0-5.202 1.056-7.078 2.936s-2.927 4.428-2.922 7.083c0 .001.056 29.417.056 38.137 0 10.519.099 38.083.1 38.361.01 2.652 1.073 5.192 2.955 7.061 1.874 1.86 4.406 2.903 7.045 2.903h.038c.654-.002 16.102-.062 22.276-.17 23.222-.406 40.077-20.623 40.077-48.071 0-28.854-16.431-48.24-40.885-48.24zm42.547 48.24c0 13.796-6.316 27.827-20.426 28.074-2.765.048-7.578.087-11.999.115-.029-9.032-.066-21.851-.066-28.273 0-5.409-.021-18.773-.038-28.156h11.643c19.38 0 20.886 21.615 20.886 28.24z"/></g><g><path d="m487.927 352.21h-125.946v-249.404h125.945c13.295 0 24.073 10.778 24.073 24.073v201.258c.001 13.295-10.777 24.073-24.072 24.073z" fill="#b2f0fb"/></g></g><path d="m464.897 219.124h-15.004v-15.004c0-5.523-4.477-10-10-10s-10 4.477-10 10v15.004h-15.003c-5.523 0-10 4.477-10 10s4.477 10 10 10h15.004v15.004c0 5.523 4.477 10 10 10s10-4.477 10-10v-15.004h15.004c5.523 0 10-4.477 10-10s-4.478-10-10.001-10z" fill="#020288"/></g></svg>