<svg id="Capa_1" enable-background="new 0 0 512 512" height="512" viewBox="0 0 512 512" width="512" xmlns="http://www.w3.org/2000/svg"><g><g><path d="m304.953 174.401c-27.429 0-48.949 30.583-48.949 30.583s-20.299-30.583-48.961-30.583c-27.878 0-50.643 22.993-52.133 50.833-.839 15.728 4.231 27.697 11.374 38.538 14.275 21.659 89.811 71.791 89.811 71.791s75.252-49.942 89.622-71.791c7.158-10.89 12.215-22.811 11.372-38.538-1.49-27.84-24.256-50.833-52.136-50.833" fill="#ffbdbc"/></g><g fill="#020288"><path d="m502 373.966h-9.383v-288.351c0-22.468-18.279-40.747-40.747-40.747h-391.74c-22.468 0-40.747 18.279-40.747 40.747v288.352h-9.383c-5.523 0-10 4.477-10 10v37.406c0 25.232 20.527 45.76 45.759 45.76h420.481c25.232 0 45.76-20.527 45.76-45.759v-37.406c0-5.525-4.478-10.002-10-10.002zm-441.87-309.098h391.74c11.44 0 20.747 9.307 20.747 20.746v27.837h-433.234v-27.836c0-11.44 9.307-20.747 20.747-20.747zm-20.747 68.583h433.234v240.515h-144.234c-5.522 0-10 4.477-10 10 0 6.387-5.196 11.582-11.583 11.582h-101.6c-6.387 0-11.583-5.196-11.583-11.582 0-5.523-4.477-10-10-10h-144.234zm452.617 287.922c0 14.204-11.556 25.759-25.76 25.759h-420.481c-14.204 0-25.759-11.556-25.759-25.76v-27.406h155.239c4.193 12.528 16.04 21.582 29.96 21.582h101.6c13.921 0 25.768-9.054 29.961-21.582h155.24z"/><path d="m250.383 97.979h11.234c5.522 0 10-4.477 10-10s-4.478-10-10-10h-11.234c-5.523 0-10 4.477-10 10s4.477 10 10 10z"/><path d="m407.112 247.724h10.516c5.522 0 10-4.477 10-10s-4.478-10-10-10h-10.516c-5.522 0-10 4.477-10 10s4.478 10 10 10z"/><path d="m381.859 191.079c2.56 0 5.119-.977 7.071-2.929l7.435-7.435c3.905-3.905 3.905-10.237 0-14.142-3.906-3.905-10.238-3.905-14.143.001l-7.435 7.435c-3.905 3.905-3.905 10.237 0 14.142 1.954 1.951 4.513 2.928 7.072 2.928z"/><path d="m382.223 308.874c1.953 1.953 4.512 2.929 7.071 2.929s5.118-.977 7.071-2.929c3.905-3.905 3.905-10.237 0-14.142l-7.435-7.435c-3.905-3.905-10.235-3.905-14.143 0-3.905 3.905-3.905 10.237 0 14.142z"/><path d="m104.887 227.724h-10.515c-5.523 0-10 4.477-10 10s4.477 10 10 10h10.515c5.523 0 10-4.477 10-10s-4.477-10-10-10z"/><path d="m123.069 287.297-7.435 7.435c-3.905 3.905-3.905 10.237 0 14.143 1.953 1.953 4.512 2.929 7.071 2.929s5.119-.976 7.071-2.929l7.435-7.435c3.905-3.905 3.905-10.237 0-14.143-3.904-3.905-10.236-3.905-14.142 0z"/><path d="m129.777 166.572c-3.905-3.905-10.237-3.905-14.143 0-3.905 3.905-3.905 10.237 0 14.143l7.435 7.435c1.953 1.953 4.512 2.929 7.071 2.929s5.119-.976 7.071-2.929c3.905-3.905 3.905-10.237 0-14.143z"/></g></g></svg>