<svg id="Capa_1" enable-background="new 0 0 512 512" height="512" viewBox="0 0 512 512" width="512" xmlns="http://www.w3.org/2000/svg"><g><g><g fill="#020288"><path d="m204.137 200.672h101.191c5.522 0 10-4.477 10-10s-4.478-10-10-10h-101.191c-5.523 0-10 4.477-10 10s4.477 10 10 10z"/><path d="m311.043 275.658h-106.906c-5.523 0-10 4.477-10 10s4.477 10 10 10h106.906c5.522 0 10-4.477 10-10s-4.478-10-10-10z"/><path d="m311.043 370.643h-106.906c-5.523 0-10 4.477-10 10s4.477 10 10 10h106.906c5.522 0 10-4.477 10-10s-4.478-10-10-10z"/></g><g><path d="m394.06 424.891c-3.374 0-6.71-.165-10-.487v56.772c0 5.968-4.855 10.823-10.823 10.823h-326.413c-5.968.001-10.824-4.854-10.824-10.822v-399.123c0-5.968 4.856-10.823 10.823-10.823h62.28v24.728h-38.333c-5.523 0-10 4.477-10 10v351.313c0 5.523 4.477 10 10 10h278.52c5.522 0 10-4.477 10-10v-38.489c-7.063-2.573-13.763-5.907-20-9.903v38.392h-258.52v-331.313h258.52v140.262c6.237-3.997 12.937-7.331 20-9.903v-140.359c0-5.523-4.478-10-10-10h-38.333v-24.728h62.279c5.968 0 10.823 4.855 10.823 10.823v158.642c3.29-.322 6.626-.487 10-.487s6.71.165 10 .487v-158.642c0-16.996-13.827-30.823-30.823-30.823h-110.113c-.98-28.416-24.42-51.231-53.093-51.231s-52.114 22.815-53.094 51.231h-110.112c-16.997 0-30.824 13.827-30.824 30.823v399.123c0 16.996 13.827 30.823 30.824 30.823h326.413c16.996 0 30.823-13.827 30.823-30.823v-56.772c-3.29.321-6.626.486-10 .486zm-264.957-353.66h38.571c2.982 0 5.808-1.331 7.708-3.629s2.675-5.324 2.114-8.252c-.392-2.049-.591-4.157-.591-6.266 0-18.243 14.86-33.084 33.125-33.084s33.125 14.841 33.125 33.084c0 2.111-.199 4.218-.591 6.264-.562 2.929.213 5.955 2.113 8.254 1.9 2.298 4.726 3.629 7.708 3.629h38.572v24.728h-161.854z" fill="#020288"/></g></g><g><ellipse cx="394.06" cy="332.55" fill="#e2c4ff" rx="101.94" ry="102.341"/><g><path d="m412.712 347.231h-18.652c-5.522 0-10-4.477-10-10v-31.208c0-5.523 4.478-10 10-10s10 4.477 10 10v21.208h8.652c5.522 0 10 4.477 10 10s-4.478 10-10 10z" fill="#020288"/></g><g><ellipse cx="140.021" cy="190.672" fill="#e2c4ff" rx="25.791" ry="25.791" transform="matrix(.23 -.973 .973 .23 -77.721 283.14)"/></g><g><ellipse cx="140.021" cy="380.643" fill="#e2c4ff" rx="25.791" ry="25.791" transform="matrix(.707 -.707 .707 .707 -228.144 210.497)"/></g><g><ellipse cx="140.021" cy="285.658" fill="#e2c4ff" rx="25.791" ry="25.791" transform="matrix(.23 -.973 .973 .23 -170.165 356.302)"/></g></g></g></svg>