<svg id="Capa_1" enable-background="new 0 0 511.985 511.985" height="512" viewBox="0 0 511.985 511.985" width="512" xmlns="http://www.w3.org/2000/svg"><g><g><path d="m355.986 195.532 29.845-29.821c-9.744-9.736-9.744-25.522 0-35.258l-48.028-47.99c-9.744 9.736-25.542 9.736-35.286 0l-113.16 113.07h166.629z" fill="#a4fcc4"/></g><g><g><path d="m451.577 396.935v79.51c0 8.569-6.98 15.54-15.561 15.54h-333.749v-286.453h333.749c8.58 0 15.561 6.971 15.561 15.54v79.51h20v-79.51c0-17.268-12.387-31.699-28.746-34.885l16.626-16.613c5.745-5.74 8.909-13.374 8.909-21.493s-3.164-15.753-8.909-21.493l-117.799-117.704c-11.855-11.846-31.143-11.846-42.998 0l-176.788 176.648h-65.903c-19.608 0-35.561 15.943-35.561 35.54v255.374c0 19.597 15.952 35.54 35.561 35.54h380.047c19.608 0 35.561-15.943 35.561-35.54v-79.51h-20zm-138.781-373.903c4.059-4.056 10.666-4.056 14.725 0l117.799 117.704c1.964 1.962 3.046 4.571 3.046 7.345s-1.082 5.383-3.046 7.345l-30.129 30.105h-265.023zm-230.529 468.953h-26.298c-8.58 0-15.561-6.971-15.561-15.54v-255.373c0-8.569 6.981-15.54 15.561-15.54h26.298z" fill="#020288"/></g></g><path d="m491.577 406.935h-115.807c-32.13 0-58.177-26.047-58.177-58.177 0-32.13 26.047-58.177 58.177-58.177h115.807z" fill="#a4fcc4"/><g><path d="m382.447 381.986c-18.331 0-33.245-14.906-33.245-33.227 0-18.322 14.914-33.227 33.245-33.227 18.332 0 33.246 14.906 33.246 33.227s-14.914 33.227-33.246 33.227zm0-46.455c-7.304 0-13.245 5.934-13.245 13.227 0 7.294 5.941 13.227 13.245 13.227s13.246-5.934 13.246-13.227-5.942-13.227-13.246-13.227z" fill="#020288"/></g></g></svg>