<svg id="Capa_1" enable-background="new 0 0 512 512" height="512" viewBox="0 0 512 512" width="512" xmlns="http://www.w3.org/2000/svg"><g><path d="m276.48 186.234v18.847l-180.617 58.933v57.004l25.144 6.873v94.09h34.631c9.842 0 17.82-7.978 17.82-17.82v-61.933l103.022 28.162v18.847h43.724v-203.003z" fill="#b2f0fb"/><g fill="#020288"><path d="m475.294 28.481h-438.588c-20.24 0-36.706 16.501-36.706 36.784v387.819c0 16.782 13.601 30.435 30.317 30.435h451.365c16.717 0 30.317-13.653 30.317-30.435v-387.819c.001-20.283-16.465-36.784-36.705-36.784zm-455.294 36.784c0-9.254 7.494-16.783 16.706-16.783h438.588c9.212 0 16.706 7.529 16.706 16.783v59.432h-472zm472 387.818c0 5.754-4.628 10.435-10.317 10.435h-451.366c-5.689 0-10.317-4.681-10.317-10.435v-308.387h472z"/><path d="m328.972 76.589h-13.433c-5.523 0-10 4.477-10 10s4.477 10 10 10h13.433c5.523 0 10-4.477 10-10s-4.477-10-10-10z"/><path d="m391.104 76.589h-13.433c-5.523 0-10 4.477-10 10s4.477 10 10 10h13.433c5.523 0 10-4.477 10-10s-4.477-10-10-10z"/><path d="m453.237 76.589h-13.433c-5.523 0-10 4.477-10 10s4.477 10 10 10h13.433c5.523 0 10-4.477 10-10s-4.477-10-10-10z"/><path d="m168.216 76.589h-96.949c-5.523 0-10 4.477-10 10s4.477 10 10 10h96.949c5.523 0 10-4.477 10-10s-4.477-10-10-10z"/><path d="m396.136 287.735c0 13.089-5.08 25.378-14.305 34.602-3.905 3.905-3.906 10.237 0 14.142 1.953 1.953 4.512 2.929 7.071 2.929s5.119-.977 7.071-2.929c13.003-13.003 20.164-30.314 20.164-48.745s-7.161-35.743-20.163-48.746c-3.905-3.905-10.237-3.905-14.142 0s-3.905 10.237 0 14.143c9.224 9.226 14.304 21.516 14.304 34.604z"/><path d="m350.718 305.368c1.953 1.953 4.512 2.929 7.071 2.929s5.119-.976 7.071-2.929c9.722-9.723 9.722-25.543 0-35.266-3.905-3.905-10.237-3.905-14.142 0s-3.905 10.237 0 14.143c1.258 1.258 1.446 2.727 1.446 3.49 0 .764-.188 2.232-1.446 3.49-3.905 3.906-3.905 10.238 0 14.143z"/></g></g></svg>