<svg id="Capa_1" enable-background="new 0 0 512 512" height="512" viewBox="0 0 512 512" width="512" xmlns="http://www.w3.org/2000/svg"><g><g><path d="m262.465 286.617h158.737v100.881h-158.737z" fill="#b2f0fb"/><g><path d="m90.798 286.617h115.256v168.012h-115.256z" fill="#b2f0fb"/></g></g><g><path d="m470.309 47.371h-428.618c-22.988 0-41.691 18.703-41.691 41.692v87.77c0 19.938 12.805 36.919 30.566 43.039v234.758c0 5.523 4.477 10 10 10h430.867c5.522 0 10-4.477 10-10v-234.758c17.762-6.12 30.567-23.102 30.567-43.039v-87.77c0-22.989-18.703-41.692-41.691-41.692zm-419.743 397.258v-222.652c11.967-1.45 22.508-7.634 29.719-16.634 8.282 10.338 20.959 16.961 35.144 16.961s26.861-6.623 35.144-16.961c8.282 10.338 20.959 16.961 35.143 16.961s26.86-6.623 35.142-16.96c8.282 10.337 20.959 16.96 35.144 16.96 14.184 0 26.86-6.623 35.143-16.96 8.282 10.337 20.959 16.96 35.143 16.96s26.86-6.623 35.143-16.961c8.282 10.338 20.959 16.961 35.144 16.961s26.861-6.623 35.144-16.961c7.21 9 17.752 15.184 29.719 16.634v222.652zm441.434-267.796c0 14.045-11.279 25.472-25.144 25.472-13.863 0-25.142-11.427-25.142-25.472 0-.126-.003-.252-.008-.378v-27.907c0-5.523-4.478-10-10-10s-10 4.477-10 10v28.285c0 .108.003.216.006.323-.172 13.897-11.384 25.148-25.142 25.148-13.864 0-25.144-11.427-25.144-25.472 0-5.523-4.478-10-10-10s-10 4.477-10 10c0 14.045-11.279 25.472-25.143 25.472-13.863 0-25.143-11.427-25.143-25.472 0-.181-.005-.362-.015-.541v-27.744c0-5.523-4.478-10-10-10s-10 4.477-10 10v28.285c0 .149.004.298.01.445-.235 13.84-11.422 25.026-25.138 25.026-13.864 0-25.144-11.427-25.144-25.472 0-5.523-4.477-10-10-10-5.522 0-10 4.477-10 10 0 14.045-11.278 25.472-25.142 25.472-13.863 0-25.143-11.427-25.143-25.472v-28.285c0-5.523-4.478-10-10-10s-10 4.477-10 10v28.285c0 14.045-11.279 25.472-25.144 25.472-13.864 0-25.144-11.427-25.144-25.472 0-5.523-4.478-10-10-10s-10 4.477-10 10c0 14.045-11.279 25.472-25.143 25.472s-25.137-11.426-25.137-25.47v-87.77c0-11.961 9.73-21.692 21.691-21.692h428.617c11.961 0 21.691 9.731 21.691 21.692v87.77z" fill="#020288"/></g></g></svg>