<svg id="Capa_1" enable-background="new 0 0 512 512" height="512" viewBox="0 0 512 512" width="512" xmlns="http://www.w3.org/2000/svg"><g><g fill="#020288"><path d="m502 312.115c-5.522 0-10 4.477-10 10v53.086c0 7.76-6.313 14.073-14.073 14.073h-443.854c-7.76 0-14.073-6.313-14.073-14.073v-26.046c4.293 1.956 9.056 3.055 14.073 3.055h330.908c5.522 0 10-4.477 10-10s-4.478-10-10-10h-330.908c-7.76 0-14.073-6.313-14.073-14.074v-33.956-147.381c0-7.76 6.313-14.074 14.073-14.074h330.908c5.522 0 10-4.477 10-10s-4.478-10-10-10h-330.908c-18.788 0-34.073 15.285-34.073 34.074v147.382 33.956 57.065c0 18.788 15.285 34.073 34.073 34.073h443.854c18.788 0 34.073-15.285 34.073-34.073v-53.086c0-5.524-4.478-10.001-10-10.001z"/><path d="m106.348 181.446h-21.889c-5.522 0-10 4.477-10 10v34.699.056 40.6c0 2.66 1.06 5.21 2.944 7.087 1.875 1.866 4.412 2.913 7.056 2.913h.044c.002 0 20.121-.089 25.667-.089 16.698 0 30.283-13.585 30.283-30.283 0-9.324-4.238-17.674-10.886-23.234 2.608-4.187 4.12-9.124 4.12-14.409 0-15.076-12.265-27.34-27.339-27.34zm0 20c4.047 0 7.339 3.292 7.339 7.339s-3.292 7.339-7.339 7.339c-1.61 0-4.644.009-7.95.021h-3.938v-14.699zm3.822 55.265c-2.904 0-9.789.024-15.711.048v-20.6c1.308-.005 2.643-.01 3.937-.015h11.774c5.67 0 10.283 4.613 10.283 10.283s-4.613 10.284-10.283 10.284z"/><path d="m263.532 276.801h.025c5.511 0 9.985-4.461 9.999-9.976l.087-35.537 22.26-34.195c3.013-4.628 1.703-10.823-2.925-13.836-4.63-3.014-10.823-1.703-13.837 2.925l-15.504 23.817-15.684-24.02c-3.019-4.624-9.214-5.926-13.84-2.906-4.625 3.02-5.926 9.216-2.906 13.84l22.435 34.36-.086 35.503c-.013 5.523 4.454 10.011 9.976 10.025z"/><path d="m159.545 181.446c-5.522 0-10 4.477-10 10v51.853c0 11.582 5.53 20.988 16.438 27.957 5.744 3.67 12.224 5.536 19.26 5.545h.058c6.055 0 11.741-1.318 16.902-3.917 16.285-8.201 19.703-20.645 19.703-29.64v-51.798c0-5.523-4.478-10-10-10s-10 4.477-10 10v51.798c0 3.443-.988 7.894-8.699 11.777-2.377 1.198-4.964 1.78-7.905 1.78-.011 0-.021 0-.031 0-3.213-.004-6-.789-8.52-2.399-5.979-3.821-7.205-7.202-7.205-11.103v-51.853c-.001-5.523-4.479-10-10.001-10z"/></g><path d="m487.927 352.21h-125.946v-249.404h125.945c13.295 0 24.073 10.778 24.073 24.073v201.258c.001 13.295-10.777 24.073-24.072 24.073z" fill="#ffbdbc"/><path d="m424.314 266.917c-2.56 0-5.118-.976-7.071-2.929-3.905-3.905-3.905-10.237 0-14.142l22.379-22.379-22.379-22.379c-3.905-3.905-3.905-10.237 0-14.142 3.908-3.905 10.238-3.905 14.143 0l29.449 29.45c3.905 3.905 3.905 10.237 0 14.142l-29.449 29.45c-1.953 1.953-4.512 2.929-7.072 2.929z" fill="#020288"/></g></svg>