<svg id="Capa_1" enable-background="new 0 0 512 512" height="512" viewBox="0 0 512 512" width="512" xmlns="http://www.w3.org/2000/svg"><g><g><path d="m499.959 258.894c5.643-8.79 12.041-18.751 12.041-30.534s-6.397-21.745-12.041-30.535c-3.649-5.682-7.095-11.048-8.168-15.774-1.15-5.06-.36-11.589.475-18.502 1.233-10.203 2.631-21.767-2.314-32.02-5.031-10.433-15.043-16.583-23.876-22.009-5.844-3.589-11.362-6.98-14.484-10.891-3.157-3.955-5.253-10.123-7.473-16.653-3.324-9.782-7.092-20.87-16.082-28.051-8.949-7.148-20.566-8.368-30.816-9.443-6.884-.722-13.386-1.405-17.99-3.626-4.441-2.144-8.94-6.736-13.704-11.599-7.287-7.439-15.546-15.871-26.938-18.46-10.981-2.498-21.87 1.417-31.477 4.872-6.614 2.378-12.861 4.624-18.15 4.624-5.29 0-11.537-2.246-18.152-4.625-9.607-3.454-20.496-7.367-31.477-4.872-11.391 2.59-19.65 11.022-26.938 18.46-4.763 4.862-9.261 9.455-13.702 11.598-4.702 2.269-10.462 3.118-16.561 4.016-9.237 1.361-19.707 2.903-28.563 9.977-3.988 3.185-8.085 9.527-11.124 33.75-3.304 3.232-6.503 6.01-9.673 7.54-4.605 2.222-11.107 2.905-17.991 3.627-10.25 1.076-21.867 2.294-30.815 9.443-8.991 7.181-12.759 18.27-16.084 28.053-2.219 6.529-4.314 12.697-7.471 16.651-3.122 3.911-8.641 7.301-14.485 10.891-8.833 5.426-18.845 11.576-23.876 22.008-4.945 10.254-3.548 21.818-2.314 32.021.835 6.913 1.624 13.442.475 18.502-1.074 4.726-4.52 10.093-8.168 15.774-5.646 8.789-12.043 18.752-12.043 30.535s6.397 21.745 12.041 30.534c3.648 5.682 7.094 11.048 8.168 15.774 1.15 5.06.36 11.589-.475 18.502-1.233 10.203-2.631 21.767 2.314 32.021 5.032 10.432 15.044 16.582 23.877 22.008 5.843 3.589 11.362 6.979 14.484 10.89 3.157 3.955 5.252 10.123 7.472 16.652 3.324 9.783 7.092 20.871 16.083 28.052 8.949 7.148 20.566 8.367 30.816 9.443 6.884.722 13.386 1.405 17.991 3.627 4.441 2.143 8.94 6.736 13.703 11.598 7.287 7.439 15.546 15.871 26.937 18.46 2.426.552 4.846.79 7.25.79 8.479 0 16.743-2.971 24.228-5.662 6.614-2.378 12.862-4.625 18.152-4.625s11.537 2.246 18.151 4.624c9.608 3.455 20.494 7.369 31.478 4.872 11.39-2.59 19.649-11.022 26.937-18.46 4.763-4.862 9.262-9.455 13.702-11.598 4.605-2.222 11.107-2.905 17.991-3.627 10.25-1.075 21.867-2.294 30.816-9.443 8.99-7.181 12.758-18.269 16.082-28.051 2.22-6.53 4.315-12.698 7.473-16.653 1.205-1.51 2.767-2.941 4.568-4.337 2.189-.164 5.045-.187 8.046-.21 11.023-.087 22.423-.177 29.751-6.03 8.99-7.181 12.759-18.27 16.083-28.052 2.219-6.529 4.314-12.697 7.472-16.652 3.122-3.911 8.642-7.301 14.484-10.891 8.834-5.426 18.846-11.576 23.878-22.008 4.944-10.254 3.547-21.818 2.314-32.021-.835-6.913-1.625-13.442-.476-18.501 1.073-4.726 4.519-10.092 8.168-15.774zm-129.919 142c-5.338 6.688-8.104 14.825-10.778 22.695-2.679 7.884-5.209 15.331-9.628 18.86-4.376 3.496-12.17 4.313-20.422 5.179-8.284.87-16.852 1.769-24.596 5.506-7.589 3.663-13.541 9.738-19.297 15.614-5.878 6.001-11.431 11.668-17.084 12.954-5.289 1.201-12.567-1.419-20.277-4.19-7.936-2.853-16.143-5.804-24.918-5.804s-16.982 2.95-24.918 5.804c-7.711 2.773-14.996 5.392-20.276 4.19-5.654-1.286-11.206-6.954-17.084-12.954-5.756-5.876-11.708-11.952-19.298-15.614-7.744-3.737-16.311-4.637-24.596-5.506-8.252-.866-16.045-1.684-20.421-5.179-4.419-3.529-6.95-10.976-9.628-18.86-2.674-7.87-5.439-16.007-10.777-22.694-5.304-6.645-12.596-11.124-19.647-15.455-7.121-4.374-13.847-8.505-16.33-13.654-2.402-4.98-1.465-12.729-.474-20.933 1.004-8.303 2.042-16.889.122-25.333-1.851-8.148-6.422-15.266-10.842-22.149-4.561-7.104-8.87-13.813-8.87-19.728 0-5.914 4.309-12.624 8.87-19.728 4.42-6.883 8.99-14.001 10.842-22.149 1.919-8.445.881-17.031-.122-25.334-.992-8.204-1.928-15.953.474-20.933 2.483-5.149 9.209-9.28 16.33-13.654 7.051-4.332 14.343-8.811 19.647-15.456 5.338-6.687 8.103-14.824 10.777-22.693 2.679-7.884 5.21-15.331 9.629-18.861 4.375-3.495 12.169-4.313 20.42-5.179 8.285-.869 16.853-1.769 24.596-5.506 7.59-3.663 13.541-9.739 19.298-15.615 5.878-6 11.43-11.668 17.084-12.954.905-.206 1.868-.299 2.882-.299 4.907 0 11.004 2.192 17.395 4.49 7.937 2.854 16.143 5.804 24.918 5.804s16.982-2.95 24.918-5.804c7.71-2.772 14.988-5.393 20.277-4.19 5.654 1.286 11.206 6.954 17.084 12.954 5.757 5.876 11.708 11.952 19.299 15.615 7.743 3.737 16.311 4.636 24.595 5.505 8.252.866 16.046 1.684 20.421 5.179 4.42 3.53 6.95 10.977 9.63 18.861 2.674 7.869 5.438 16.006 10.776 22.693 5.304 6.645 12.596 11.124 19.647 15.456 7.121 4.374 13.847 8.505 16.33 13.654 2.401 4.979 1.465 12.729.474 20.933-1.004 8.303-2.042 16.889-.122 25.334 1.851 8.148 6.422 15.266 10.842 22.149 4.562 7.104 8.87 13.814 8.87 19.728s-4.309 12.624-8.87 19.728c-4.42 6.883-8.991 14.001-10.842 22.149-1.92 8.445-.882 17.031.121 25.334.992 8.204 1.929 15.953-.473 20.932-2.483 5.149-9.209 9.28-16.33 13.654-7.052 4.331-14.344 8.81-19.648 15.454zm113.09-152.807c-4.42 6.883-8.991 14.002-10.843 22.15-1.918 8.445-.881 17.03.123 25.333.992 8.204 1.929 15.954-.473 20.933-2.483 5.149-9.21 9.28-16.33 13.654-7.053 4.332-14.344 8.811-19.648 15.455-3.845 4.817-6.355 10.386-8.458 16.065-.103-4.516-.643-8.988-1.155-13.225-.836-6.913-1.625-13.443-.476-18.503 1.074-4.726 4.521-10.093 8.169-15.774 5.644-8.79 12.041-18.752 12.041-30.534 0-11.783-6.397-21.745-12.041-30.535-3.648-5.682-7.095-11.048-8.169-15.775-1.149-5.06-.36-11.589.476-18.501 1.233-10.203 2.631-21.767-2.315-32.02-5.031-10.433-15.043-16.583-23.877-22.008-5.844-3.589-11.362-6.98-14.484-10.89-3.156-3.955-5.252-10.122-7.471-16.651-3.325-9.783-7.093-20.872-16.084-28.053-8.948-7.149-20.565-8.368-30.815-9.444-6.884-.722-13.386-1.405-17.99-3.626-4.441-2.144-8.94-6.736-13.704-11.599-7.287-7.439-15.546-15.871-26.938-18.461-10.98-2.497-21.87 1.418-31.477 4.872-6.614 2.378-12.862 4.624-18.151 4.624s-11.538-2.246-18.152-4.624c-7.42-2.667-15.605-5.609-24.007-5.661 1.348-.218 2.737-.422 4.163-.632 6.977-1.027 14.883-2.192 22.338-5.79 7.589-3.663 13.542-9.738 19.297-15.614 5.878-6 11.43-11.668 17.084-12.954 5.282-1.198 12.566 1.418 20.277 4.19 7.935 2.854 16.143 5.804 24.918 5.804s16.981-2.95 24.917-5.804c7.712-2.773 15-5.393 20.276-4.19 5.655 1.286 11.207 6.954 17.085 12.954 5.757 5.876 11.708 11.952 19.299 15.615 7.743 3.737 16.311 4.636 24.595 5.505 8.252.866 16.046 1.684 20.422 5.179 4.419 3.529 6.949 10.975 9.628 18.86 2.675 7.87 5.44 16.007 10.778 22.695 5.304 6.645 12.596 11.124 19.647 15.455 7.12 4.374 13.847 8.505 16.33 13.655 2.401 4.98 1.465 12.729.473 20.933-1.004 8.303-2.041 16.888-.123 25.333 1.852 8.148 6.423 15.266 10.843 22.149 4.561 7.104 8.87 13.813 8.87 19.728.002 5.914-4.307 12.623-8.868 19.727z" fill="#020288"/></g><g><ellipse cx="223.04" cy="283.762" fill="#fff59b" rx="154.004" ry="146.587"/><g fill="#020288"><path d="m165.916 247.175c-.033 0-.066 0-.099.001-5.522.053-9.956 4.573-9.903 10.096l.202 20.924-18.334-26.598c-2.485-3.605-7.024-5.173-11.206-3.873-4.18 1.301-7.028 5.17-7.028 9.548v52.593c0 5.523 4.477 10 10 10s10-4.477 10-10v-20.466l17.267 25.048c2.757 3.991 7.599 5.739 12.048 4.354 4.511-1.407 7.542-5.711 7.541-10.807l-.491-50.916c-.052-5.49-4.519-9.904-9.997-9.904z"/><path d="m225.937 267.656c5.523 0 10-4.477 10-10s-4.477-10-10-10h-21.96c-5.523 0-10 4.477-10 10v52.21c0 5.523 4.477 10 10 10h21.96c5.523 0 10-4.477 10-10s-4.477-10-10-10h-11.96v-6.105h10.341c5.523 0 10-4.477 10-10s-4.477-10-10-10h-10.341v-6.105z"/><path d="m319.334 247.705c-5.41-1.078-10.681 2.442-11.757 7.86l-3.449 17.366-5.675-18.454c-1.623-5.278-7.214-8.244-12.498-6.619-3.547 1.091-6.049 3.976-6.816 7.353l-5.478 17.73-3.447-17.461c-1.069-5.418-6.329-8.945-11.747-7.874-5.419 1.07-8.944 6.329-7.874 11.748l10.247 51.9c.095.478.224.948.386 1.407 1.584 4.463 5.813 7.447 10.543 7.447h.078c4.761-.033 8.987-3.085 10.517-7.594.029-.086.058-.173.085-.261l6.439-20.839 6.409 20.842c.042.136.087.271.134.404 1.584 4.463 5.814 7.447 10.543 7.447h.078c4.761-.033 8.987-3.085 10.517-7.594.141-.414.254-.836.339-1.264l10.288-51.789c1.075-5.416-2.445-10.68-7.862-11.755z"/></g></g></g></svg>