<svg id="Capa_1" enable-background="new 0 0 512 512" height="512" viewBox="0 0 512 512" width="512" xmlns="http://www.w3.org/2000/svg"><g><g><path d="m477.593 255.69-37.255-62.028c-.016-.026-1.018-1.405-1.023-1.41-1.127-1.3-2.603-2.326-4.351-2.916l-131.12-44.276-14.928 2.845 2.26 13.987.102.036 109.227 36.883-144.505 48.795-144.505-48.795 108.96-36.793c.123-.042.245-.086.365-.132l1.966-13.43-14.629-3.396c-26.251 8.864-131.146 44.285-131.157 44.288-.038.013-.795.31-.797.311-1.732.761-3.155 1.968-4.176 3.438-.003.005-.35.539-.366.565l-37.254 62.028c-1.035 1.723-1.648 3.699-1.576 5.708.15 4.158 2.767 7.647 6.465 9.045l30.938 11.691v160.546c0 4.29 2.737 8.102 6.801 9.475l175.765 59.351c.001 0 .005.002.011.003 2.074.651 4.316.662 6.386-.003.001 0 .002 0 .002-.001l175.765-59.351c4.065-1.373 6.801-5.185 6.801-9.475v-160.546l30.938-11.691c3.698-1.397 6.315-4.887 6.465-9.045.073-2.008-.54-3.984-1.575-5.707zm-420.021.277 27.091-45.105 153.724 51.908-41.35 45.898zm188.427 232.13-155.763-52.597v-145.809l106.123 40.102c1.151.435 2.348.646 3.533.646 2.78 0 5.498-1.161 7.432-3.307l38.675-42.928zm175.765-52.597-155.764 52.597v-203.894l38.675 42.928c1.934 2.147 4.652 3.307 7.432 3.307 1.185 0 2.382-.211 3.533-.646l106.124-40.102zm-106.802-126.832-41.35-45.898 153.724-51.908 27.091 45.105z" fill="#020288"/></g><g><path d="m164.455 86.995 91.545 121.635 91.545-121.635h-50.975v-86.995h-81.14v86.995z" fill="#a4fcc4"/></g></g></svg>