<svg id="Capa_1" enable-background="new 0 0 512 512" height="512" viewBox="0 0 512 512" width="512" xmlns="http://www.w3.org/2000/svg"><g><g><g fill="#020288"><path d="m188.799 316.582c0-5.523-4.477-10-10-10h-77.413c-5.522 0-10 4.477-10 10s4.478 10 10 10h77.413c5.522 0 10-4.477 10-10z"/><path d="m101.386 360.295c-5.522 0-10 4.477-10 10s4.478 10 10 10h53.173c5.523 0 10-4.477 10-10s-4.477-10-10-10z"/><path d="m406.3 393.614c-3.303 0-6.57-.154-9.796-.453v37.749c0 6.571-5.273 11.917-11.754 11.917h-339.226c-6.48 0-11.753-5.346-11.753-11.917v-272.101h119.758v59.067c0 3.282 1.61 6.355 4.31 8.223 2.698 1.868 6.141 2.292 9.213 1.136l48.086-18.101 48.087 18.101c1.142.43 2.334.641 3.521.641 2.007 0 3.996-.604 5.691-1.777 2.699-1.868 4.31-4.941 4.31-8.223v-59.067h119.758v41.628c3.225-.3 6.493-.453 9.796-.453 3.442 0 6.846.166 10.204.491v-41.667h3.77c5.523 0 10-4.477 10-10v-89.635c0-5.523-4.477-10-10-10h-410.275c-5.523 0-10 4.477-10 10v89.637c0 5.523 4.477 10 10 10h3.771v272.1c0 17.599 14.244 31.917 31.753 31.917h339.227c17.509 0 31.754-14.318 31.754-31.917v-37.788c-3.358.326-6.762.492-10.205.492zm-129.553-324.441h133.528v69.637h-133.528zm-103.218-.212h83.218v134.466l-38.087-14.336c-1.135-.427-2.329-.641-3.523-.641-1.193 0-2.388.214-3.522.641l-38.086 14.336zm-153.529 69.848v-69.636h133.529v69.637h-133.529z"/></g><g><g><ellipse cx="406.3" cy="296.799" fill="#a4fcc4" rx="105.7" ry="106.815"/><path d="m398.94 322.185c-2.652 0-5.203-1.055-7.084-2.942l-17.291-17.357c-3.898-3.913-3.886-10.245.027-14.142 3.912-3.897 10.244-3.886 14.143.027l9.558 9.595 27.556-32.982c3.541-4.239 9.847-4.803 14.085-1.263 4.238 3.541 4.804 9.848 1.263 14.086l-34.581 41.391c-1.802 2.157-4.429 3.456-7.236 3.579-.149.005-.295.008-.44.008z" fill="#020288"/></g></g></g></g></svg>