<svg id="Capa_1" enable-background="new 0 0 512 512" height="512" viewBox="0 0 512 512" width="512" xmlns="http://www.w3.org/2000/svg"><g><g><g><g><path d="m311.626 344.126h-111.252c-16.479 0-29.839-13.359-29.839-29.839v-139.833h170.929v139.833c0 16.48-13.359 29.839-29.838 29.839z" fill="#e2c4ff"/></g><g><path d="m288.678 222.204c-5.523 0-10-4.477-10-10v-42.259c0-12.436-10.226-22.555-22.796-22.555-12.569 0-22.795 10.118-22.795 22.555v42.259c0 5.523-4.477 10-10 10s-10-4.477-10-10v-42.259c0-23.465 19.198-42.555 42.795-42.555 23.598 0 42.796 19.09 42.796 42.555v42.259c0 5.523-4.477 10-10 10z" fill="#020288"/></g></g><g fill="#020288"><path d="m366.321 0h-220.642c-26.624 0-48.284 21.579-48.284 48.102v415.705c0 26.574 21.619 48.193 48.193 48.193h220.825c26.574 0 48.193-21.619 48.193-48.193v-415.705c-.001-26.523-21.661-48.102-48.285-48.102zm-248.926 84.545h277.211v327.623h-277.211zm28.284-64.545h220.643c15.596 0 28.284 12.606 28.284 28.102v16.443h-277.211v-16.443c0-15.496 12.688-28.102 28.284-28.102zm248.926 443.807c0 15.545-12.647 28.193-28.193 28.193h-220.825c-15.545 0-28.193-12.647-28.193-28.193v-31.639h277.211z"/><path d="m249.333 472.084h13.333c5.523 0 10-4.477 10-10s-4.477-10-10-10h-13.333c-5.523 0-10 4.477-10 10s4.478 10 10 10z"/></g></g></g></svg>