<svg id="Capa_1" enable-background="new 0 0 512 512" height="512" viewBox="0 0 512 512" width="512" xmlns="http://www.w3.org/2000/svg"><g><g><g fill="#020288"><path d="m262.049 86.982h-11.878c-5.523 0-10 4.477-10 10s4.477 10 10 10h11.878c5.523 0 10-4.477 10-10s-4.477-10-10-10z"/><path d="m316.989 86.982h-11.878c-5.523 0-10 4.477-10 10s4.477 10 10 10h11.878c5.523 0 10-4.477 10-10s-4.477-10-10-10z"/><path d="m371.929 86.982h-11.878c-5.523 0-10 4.477-10 10s4.477 10 10 10h11.878c5.523 0 10-4.477 10-10s-4.477-10-10-10z"/><path d="m149.901 86.982h-85.727c-5.523 0-10 4.477-10 10s4.477 10 10 10h85.727c5.523 0 10-4.477 10-10s-4.477-10-10-10z"/><path d="m143.834 194.115c-23.047 0-41.797 18.801-41.797 41.912v3.15h-26.664c-5.523 0-10 4.477-10 10v113.574c0 18.789 15.286 34.074 34.074 34.074h89.002c18.789 0 34.074-15.286 34.074-34.074v-113.574c0-5.523-4.477-10-10-10h-26.893v-3.15c.001-23.11-18.749-41.912-41.796-41.912zm-21.796 41.912c0-12.082 9.778-21.912 21.797-21.912s21.796 9.83 21.796 21.912v3.15h-43.593zm80.486 23.15v103.574c0 7.761-6.314 14.074-14.074 14.074h-89.003c-7.761 0-14.074-6.314-14.074-14.074v-103.574h16.665v21.079c0 5.523 4.477 10 10 10s10-4.477 10-10v-21.079h43.593v21.079c0 5.523 4.477 10 10 10s10-4.477 10-10v-21.079z"/><path d="m373.899 440.341h-340.285c-7.507 0-13.614-6.077-13.614-13.546v-273.123h385.047v95.231h20v-175.064c0-18.498-15.079-33.546-33.614-33.546h-357.819c-18.535-.001-33.614 15.048-33.614 33.546v352.956c0 18.498 15.079 33.546 33.614 33.546h372.136c-10.03-4.872-21.366-11.45-31.851-20zm-353.899-366.502c0-7.47 6.107-13.546 13.614-13.546h357.819c7.507 0 13.614 6.077 13.614 13.546v59.833h-385.047z"/></g><g><g><path d="m486.031 274.361c-24.89 0-46.358-14.502-56.347-35.458h-29.273c-9.988 20.956-31.457 35.458-56.347 35.458-9.269 0-18.063-2.013-25.969-5.618v102.455c0 74.937 96.952 100.51 96.952 100.51s96.953-25.573 96.953-100.51v-102.455c-7.906 3.605-16.701 5.618-25.969 5.618z" fill="#a4fcc4"/></g><g><path d="m412.066 384.686c-2.635 0-5.17-1.04-7.047-2.906l-16.759-16.649c-3.918-3.893-3.939-10.224-.046-14.142 3.892-3.918 10.224-3.939 14.142-.046l9.065 9.006 26.522-31.414c3.563-4.221 9.872-4.754 14.092-1.19 4.22 3.563 4.753 9.872 1.19 14.092l-33.518 39.701c-1.802 2.134-4.414 3.417-7.204 3.54-.145.005-.291.008-.437.008z" fill="#020288"/></g></g></g></g></svg>