<svg id="Capa_1" enable-background="new 0 0 512 512" height="512" viewBox="0 0 512 512" width="512" xmlns="http://www.w3.org/2000/svg"><g><g><g fill="#020288"><path d="m256 43.162c-5.523 0-10 4.477-10 10v18.942c0 5.523 4.477 10 10 10s10-4.477 10-10v-18.942c0-5.523-4.477-10-10-10z"/><path d="m256 434.311c-5.523 0-10 4.477-10 10v18.942c0 5.523 4.477 10 10 10s10-4.477 10-10v-18.942c0-5.523-4.477-10-10-10z"/><path d="m461.046 248.208h-18.943c-5.523 0-10 4.477-10 10s4.477 10 10 10h18.943c5.523 0 10-4.477 10-10s-4.477-10-10-10z"/><path d="m69.897 248.208h-18.943c-5.523 0-10 4.477-10 10s4.477 10 10 10h18.943c5.523 0 10-4.477 10-10s-4.477-10-10-10z"/><path d="m393.918 106.147-13.395 13.395c-3.905 3.905-3.905 10.237 0 14.143 1.953 1.953 4.512 2.929 7.071 2.929s5.119-.976 7.071-2.929l13.395-13.395c3.905-3.905 3.905-10.237 0-14.143-3.905-3.905-10.237-3.905-14.142 0z"/><path d="m117.334 382.731-13.395 13.395c-3.905 3.905-3.905 10.237 0 14.143 1.953 1.953 4.512 2.929 7.071 2.929s5.119-.976 7.071-2.929l13.395-13.395c3.905-3.905 3.905-10.237 0-14.143-3.905-3.905-10.237-3.905-14.142 0z"/><path d="m394.666 382.731c-3.905-3.905-10.237-3.905-14.143 0-3.905 3.905-3.905 10.237 0 14.143l13.395 13.395c1.953 1.953 4.512 2.929 7.071 2.929s5.119-.976 7.071-2.929c3.905-3.905 3.905-10.237 0-14.143z"/><path d="m118.082 106.147c-3.905-3.905-10.237-3.905-14.143 0-3.905 3.905-3.905 10.237 0 14.143l13.395 13.395c1.953 1.953 4.512 2.929 7.071 2.929s5.119-.976 7.071-2.929c3.905-3.905 3.905-10.237 0-14.143z"/><path d="m437.019 74.981c-48.352-48.353-112.639-74.981-181.019-74.981s-132.667 26.628-181.019 74.981c-48.353 48.352-74.981 112.639-74.981 181.019s26.628 132.667 74.981 181.019c48.352 48.353 112.639 74.981 181.019 74.981s132.667-26.628 181.019-74.981c48.353-48.352 74.981-112.639 74.981-181.019s-26.628-132.667-74.981-181.019zm-181.019 417.019c-130.131 0-236-105.869-236-236s105.869-236 236-236 236 105.869 236 236-105.869 236-236 236z"/></g><g><circle cx="256" cy="256" fill="#fff59b" r="147.296"/><path d="m272.944 248.393c-3.197-1.13-6.173-2.197-8.93-3.199v-50.902c8.325 1.356 14.443 5.095 17.544 9.514 3.172 4.521 9.409 5.613 13.93 2.441 4.521-3.173 5.614-9.409 2.441-13.93-6.346-9.043-18.269-16.468-33.915-18.194v-6.029c0-5.523-4.477-10-10-10s-10 4.477-10 10v6.872c-2.888.532-5.851 1.246-8.881 2.159-15.689 4.726-27.534 20.013-28.807 37.175-1.249 16.835 7.771 31.491 24.126 39.204 2.834 1.336 7.529 3.264 13.562 5.582v59.514c-9.391-2.012-18.489-6.221-24.066-13.145-3.464-4.301-9.76-4.98-14.061-1.515-4.301 3.464-4.979 9.76-1.515 14.061 10.01 12.427 25.212 18.668 39.642 20.966v4.941c0 5.523 4.477 10 10 10s10-4.477 10-10v-4.141c.07-.006.14-.012.209-.018 30.155-2.634 43.161-21.381 45.278-38.047 2.89-22.759-12.143-44.68-36.557-53.309zm-33.963-12.98c-11.91-5.616-13.075-14.712-12.71-19.635.664-8.947 6.816-17.15 14.63-19.503 1.051-.317 2.089-.601 3.112-.854v42.159c-2.276-.932-3.95-1.658-5.032-2.167zm50.679 63.768c-1.421 11.184-10.964 18.768-25.646 20.487v-53.221c.748.266 1.503.534 2.265.803 18.041 6.376 24.766 21.022 23.381 31.931z" fill="#020288"/></g></g></g></svg>