<svg id="Capa_1" enable-background="new 0 0 511.987 511.987" height="512" viewBox="0 0 511.987 511.987" width="512" xmlns="http://www.w3.org/2000/svg"><g><g><path d="m292.28 2.536c-66.416 0-125.949 29.445-166.237 75.982 5.624 2.843 10.9 6.619 15.599 11.331l28.33 28.406c29.435-34.59 73.306-56.535 122.308-56.535 88.627 0 160.473 71.785 160.473 160.336 0 49.151-22.135 93.136-56.988 122.548l22.757 22.818c6.75 6.768 11.573 14.741 14.472 23.231 48.277-40.268 78.994-100.848 78.994-168.597-.001-121.237-98.367-219.52-219.708-219.52z" fill="#b2f0fb"/></g><g fill="#020288"><path d="m425.602 360.361-32.672-32.76c-12.919-12.953-30.086-20.087-48.34-20.087s-35.422 7.134-48.342 20.089l-29.512 29.609-114.89-115.153 29.549-29.646c26.634-26.706 26.634-70.159 0-96.864l-32.672-32.76c-13.35-13.386-31.09-20.758-49.954-20.758s-36.604 7.372-49.954 20.758c-.274.275-.532.565-.772.87l-15.997 20.289c-15.27 19.367-25.587 42.398-29.837 66.604-4.286 24.413-2.311 49.581 5.71 72.784 5.812 16.812 13.122 29.71 21.726 38.338l197.771 198.251c6.821 6.84 16.396 12.92 28.46 18.072 18.002 7.688 37.12 11.456 56.211 11.455 31.786-.001 63.489-10.449 89.775-30.642l22.751-17.479c.348-.267.678-.558.988-.869 27.525-27.598 27.525-72.503.001-100.101zm-13.719 85.528-22.205 17.059c-36.35 27.926-84.611 34.307-125.948 16.655-9.696-4.141-17.149-8.785-22.154-13.803l-197.771-198.251c-6.452-6.47-12.167-16.815-16.983-30.749-14.134-40.886-6.31-85.921 20.93-120.47l15.62-19.811c9.523-9.347 22.072-14.488 35.397-14.488 13.511 0 26.222 5.285 35.792 14.881l32.672 32.76c18.867 18.918 18.867 49.7-.002 68.62l-36.591 36.711c-3.891 3.904-3.89 10.221.003 14.123l129.016 129.311c1.876 1.881 4.425 2.938 7.081 2.937 2.657-.001 5.205-1.059 7.08-2.94l36.589-36.709c9.139-9.164 21.277-14.21 34.179-14.21s25.04 5.046 34.179 14.21l32.672 32.76c19.61 19.661 19.758 51.559.444 71.404z"/><g><path d="m361.003 221.7h-1.121c.121-21.045.184-43.537-.076-46.664-.586-7.056-4.823-12.807-10.796-14.65-5.923-1.828-12.211.471-16.822 6.152-4.979 6.136-27.961 47.742-34.886 60.347-1.702 3.098-1.642 6.864.158 9.907 1.8 3.042 5.072 4.908 8.606 4.908h33.681c-.041 5.609-.084 10.986-.125 15.844-.047 5.523 4.391 10.038 9.914 10.085.029.001.059.001.088.001 5.482 0 9.951-4.421 9.997-9.914.026-2.999.074-8.807.128-16.016h1.253c5.523 0 10-4.477 10-10 .001-5.523-4.477-10-9.999-10zm-21.125 0h-16.853c6.251-11.227 12.345-21.998 16.965-29.943-.004 8.206-.048 18.878-.112 29.943z"/><path d="m282.45 250.419c-8.794.111-18.124.184-25.861.199 4.857-6.523 11.614-15.793 20.75-28.902 5.593-8.025 9.24-15.609 10.84-22.541.375-1.584.688-4.6.689-5.647.018-17.91-14.528-32.48-32.385-32.48-15.444 0-28.809 11.02-31.779 26.204-1.06 5.42 2.474 10.673 7.895 11.733 5.419 1.059 10.673-2.475 11.733-7.895 1.138-5.819 6.248-10.042 12.151-10.042 6.649 0 12.09 5.307 12.373 11.938l-.272 2.136c-1.091 4.338-3.664 9.436-7.654 15.16-13.857 19.883-22.126 30.756-26.567 36.598-5.489 7.217-7.994 10.511-6.29 16.041 1.001 3.249 3.461 5.744 6.749 6.844 1.337.448 2.619.877 19.628.877 6.676 0 15.777-.066 28.251-.224 5.522-.069 9.943-4.603 9.873-10.125-.068-5.523-4.619-9.93-10.124-9.874z"/></g></g></g></svg>