<svg id="Capa_1" enable-background="new 0 0 512 512" height="512" viewBox="0 0 512 512" width="512" xmlns="http://www.w3.org/2000/svg"><g><g><path d="m10 182.795h443.534v62.118h-443.534z" fill="#b2f0fb"/></g><g fill="#020288"><path d="m470.335 56.489h-380.204c-22.975 0-41.665 18.714-41.665 41.717v6.828h-6.801c-22.975 0-41.665 18.714-41.665 41.716v267.043c0 23.002 18.69 41.717 41.665 41.717h380.204c22.975 0 41.665-18.714 41.665-41.717v-6.828h6.801c22.975 0 41.665-18.714 41.665-41.717v-267.042c0-23.002-18.69-41.717-41.665-41.717zm-26.801 357.305c0 11.975-9.719 21.717-21.665 21.717h-380.204c-11.946 0-21.665-9.742-21.665-21.717v-267.044c0-11.975 9.719-21.717 21.665-21.717h380.204c11.946 0 21.665 9.742 21.665 21.717zm48.466-48.544c0 11.975-9.719 21.717-21.665 21.717h-6.801v-240.217c0-23.003-18.69-41.717-41.665-41.717h-353.403v-6.828c0-11.975 9.719-21.717 21.665-21.717h380.204c11.946 0 21.665 9.742 21.665 21.717z"/><path d="m167.632 298.444h-101.706c-5.522 0-10 4.477-10 10v76.742c0 5.523 4.478 10 10 10h101.706c5.522 0 10-4.477 10-10v-76.742c0-5.523-4.478-10-10-10zm-10 76.742h-81.706v-56.742h81.706z"/><path d="m355.604 294.769c-28.676 0-52.005 23.348-52.005 52.046s23.329 52.046 52.005 52.046 52.005-23.348 52.005-52.046c-.001-28.699-23.33-52.046-52.005-52.046zm0 84.092c-17.647 0-32.005-14.376-32.005-32.046s14.357-32.046 32.005-32.046 32.005 14.376 32.005 32.046c-.001 17.67-14.358 32.046-32.005 32.046z"/></g></g></svg>