<svg id="Capa_1" enable-background="new 0 0 512 512" height="512" viewBox="0 0 512 512" width="512" xmlns="http://www.w3.org/2000/svg"><g><g><path d="m502 340.354h-.303v-58.216c-.004-1.814-.366-2.854-.723-3.74l-36.249-95.892c-1.47-3.89-5.194-6.464-9.354-6.464h-59.152v-62.676c0-15.024-12.215-27.246-27.229-27.246h-176.192c3.212 6.331 5.818 13.023 7.742 20h168.45c3.986 0 7.229 3.251 7.229 7.246v226.987h-285.919v-109.155c-6.909-1.099-13.597-2.86-20-5.217v114.373h-.303c-5.523 0-10 4.477-10 10v61.51c0 5.523 4.477 10 10 10h46.407c-.73 3.476-1.114 7.079-1.114 10.77 0 28.725 23.254 52.095 51.838 52.095 28.583 0 51.838-23.37 51.838-52.095 0-3.691-.384-7.294-1.114-10.77h147.24c-.73 3.476-1.114 7.079-1.114 10.77 0 28.725 23.255 52.095 51.839 52.095s51.838-23.37 51.838-52.095c0-3.691-.384-7.294-1.114-10.77h35.459c5.522 0 10-4.477 10-10v-61.51c0-5.522-4.478-10-10-10zm-105.779-144.311h52.24l28.766 76.095h-81.006zm0 96.095h85.477v48.211h-85.477zm-229.092 172.591c-17.556 0-31.838-14.397-31.838-32.095 0-17.697 14.283-32.095 31.838-32.095s31.838 14.397 31.838 32.095-14.282 32.095-31.838 32.095zm248.688 0c-17.556 0-31.839-14.397-31.839-32.095 0-17.697 14.283-32.095 31.839-32.095s31.838 14.397 31.838 32.095-14.282 32.095-31.838 32.095zm76.183-62.865h-34.24c-.045 0-.09.001-.135.002-9.442-12.923-24.666-21.326-41.807-21.326-17.14 0-32.364 8.403-41.806 21.325h-164.933c-.048 0-.095.001-.143.002-9.443-12.923-24.667-21.326-41.807-21.326s-32.363 8.403-41.806 21.325h-45.325v-41.51h412.002z" fill="#020288"/></g><g><ellipse cx="107.207" cy="134.9" fill="#e2c4ff" rx="107.207" ry="107.629"/><path d="m125.859 149.581h-18.651c-5.523 0-10-4.477-10-10v-31.208c0-5.523 4.477-10 10-10s10 4.477 10 10v21.208h8.651c5.523 0 10 4.477 10 10 0 5.524-4.477 10-10 10z" fill="#020288"/></g></g></svg>