<svg id="Capa_1" enable-background="new 0 0 512 512" height="512" viewBox="0 0 512 512" width="512" xmlns="http://www.w3.org/2000/svg"><g><g><g><path d="m320.207 473.752h-228.698v-340.716h53.558v51.504c0 5.523 4.477 10 10 10 5.522 0 10-4.477 10-10v-51.504h137.145v51.504c0 5.523 4.478 10 10 10s10-4.477 10-10v-51.504h51.886v105.953h20v-115.953c0-5.523-4.478-10-10-10h-61.886v-24.909c0-48.593-39.733-88.127-88.572-88.127-11.194 0-21.91 2.077-31.779 5.864-9.869-3.787-20.585-5.864-31.779-5.864-48.84 0-88.573 39.534-88.573 88.127v24.908h-61.886c-5.522 0-10 4.477-10 10v323.157c0 26.224 21.369 47.559 47.635 47.559h293.133c-9.878-5.331-20.343-11.949-30.184-19.999zm-86.567-453.752c37.811 0 68.572 30.562 68.572 68.127v24.908h-43.558v-24.908c0-27.22-12.467-51.596-32.018-67.775 2.303-.232 4.64-.352 7.004-.352zm-31.779 7.768c21.854 11.403 36.794 34.181 36.794 60.36v24.908h-73.588v-24.909c0-26.179 14.94-48.956 36.794-60.359zm-100.352 60.359c0-37.565 30.762-68.127 68.573-68.127 2.364 0 4.7.119 7.003.353-19.551 16.178-32.019 40.555-32.019 67.775v24.908h-43.558v-24.909zm-30 385.625h-14.251c-15.238 0-27.635-12.363-27.635-27.559v-313.157h41.886z" fill="#020288"/></g><g><path d="m470.835 272.093c-30.231 0-56.306-17.629-68.438-43.105h-35.554c-12.132 25.475-38.207 43.105-68.438 43.105-11.258 0-21.939-2.447-31.542-6.83v124.551c0 91.099 117.757 122.186 117.757 122.186s117.757-31.087 117.757-122.186v-124.551c-9.603 4.383-20.285 6.83-31.542 6.83z" fill="#ffbdbc"/><path d="m380.753 405.65c-2.636 0-5.172-1.042-7.05-2.909l-21.732-21.609c-3.917-3.895-3.935-10.226-.04-14.142 3.893-3.917 10.225-3.935 14.142-.04l14.036 13.956 36.468-43.234c3.562-4.222 9.87-4.756 14.091-1.196 4.222 3.561 4.758 9.87 1.196 14.092l-43.466 51.531c-1.802 2.136-4.414 3.42-7.206 3.542-.147.006-.292.009-.439.009z" fill="#020288"/></g></g></g></svg>